<?xml version="1.0" encoding="UTF-8"?>
<svg width="3768px" height="558px" viewBox="0 0 3768 558" version="1.1" xmlns="http://www.w3.org/2000/svg" xmlns:xlink="http://www.w3.org/1999/xlink">
    <!-- Generator: Sketch 43.2 (39069) - http://www.bohemiancoding.com/sketch -->
    <title>Group 7</title>
    <desc>Created with Sketch.</desc>
    <defs>
        <polygon id="path-1" points="6.17583241e-15 57.4097 6.17583241e-15 0.967811111 71.8044897 0.967811111 71.8044897 57.4097 0 57.4097"></polygon>
    </defs>
    <g id="Page-1" stroke="none" stroke-width="1" fill="none" fill-rule="evenodd">
        <g id="Artboard" transform="translate(-113.000000, -88.000000)">
            <g id="Group-7" transform="translate(111.000000, 88.000000)">
                <text id="SURREY-QUAYS-RD,-LON" font-family="Kanit-Medium, Kanit" font-size="52" font-weight="400" letter-spacing="2.33623147" fill="#FFFFFF">
                    <tspan x="2798.03259" y="460">SURREY QUAYS RD, LONDON SE16 7PJ</tspan>
                </text>
                <g id="Group-6">
                    <path d="M124.025062,74.7952842 L124.025062,74.8225259 C121.860673,74.8225259 119.691065,74.7500745 117.534216,74.8793278 C117.057493,74.9071491 116.233959,75.6438346 116.230479,76.0623137 C116.184082,80.6499344 115.955001,85.2682745 116.391126,89.8193797 C117.058653,96.7758703 123.135993,101.323498 130.327424,100.721862 C136.927302,100.170652 142.124271,94.2957151 141.947385,87.5861387 C141.764119,80.6470364 136.409403,75.0236509 129.732971,74.8051376 C127.831881,74.7425396 125.927892,74.7952842 124.025062,74.7952842 M78.1663495,75.126242 C74.821174,76.1533126 72.5761716,78.067188 71.4064041,80.7467294 C69.8730054,84.2597514 68.4851752,87.9304276 67.7347145,91.6741347 C65.6335407,102.147705 61.9299537,111.834742 54.9774636,120.07681 C46.8331677,129.73081 36.2530646,135.15481 23.9528174,137.246625 C19.3195639,138.034317 14.5703195,138.135169 9.87501091,138.560603 C8.53647679,138.681742 7.99827935,138.139806 8.00175908,136.760332 C8.03365656,125.346053 8.0330766,113.931195 8.00001922,102.517496 C7.99653949,101.176856 8.46514243,100.685346 9.82281504,100.626226 C12.2441235,100.520737 14.6729714,100.327726 17.0693419,99.9724247 C23.4320186,99.0282385 27.574631,95.3940778 29.2762164,89.2154251 C30.4233657,85.0486019 31.1227903,80.7594809 32.2624002,76.5903393 C35.1923285,65.8698551 40.268667,56.369452 48.6727822,48.875662 C56.3658738,42.016546 65.3986593,38.1186623 75.6284702,37.1084004 C77.7099256,36.9026386 78.3275767,36.2952063 78.3008988,34.1709321 C78.1779485,24.3326158 78.2446433,14.4914015 78.2492829,4.65134634 C78.2510228,2.06802032 78.2846601,2.03903978 80.9106924,2.03846016 C91.8068706,2.0349825 102.703049,2.03440289 113.598647,2.03788055 C116.177703,2.03846016 116.184662,2.04599511 116.185242,4.69655599 C116.188722,14.6676032 116.21772,24.6386504 116.155085,34.609118 C116.145226,36.2563723 116.501897,36.8406202 118.320633,36.8655435 C124.871215,36.9542239 131.529089,36.5989224 137.945121,37.6433814 C153.049447,40.1032502 164.452505,48.4374761 172.47385,61.4271372 C172.907656,62.1284664 173.336242,62.8326937 174.193414,63.437228 C174.224152,62.8280568 174.282147,62.2177265 174.282147,61.6079758 C174.285627,42.6494812 174.282727,23.6909865 174.283307,4.73249187 C174.283307,2.04193783 174.287947,2.03788055 177.003872,2.03730094 C187.90005,2.03440289 198.796228,2.07265721 209.691827,2.00020584 C211.538401,1.98861362 212.190849,2.46273538 212.17461,4.41486507 C212.084717,15.1724443 212.168811,25.9311828 212.092257,36.6893417 C212.079498,38.4194804 212.55448,38.9098313 214.297242,38.9011371 C228.474801,38.8333226 242.65294,38.8982391 256.830498,38.8205712 C258.664313,38.8101382 259.430433,39.3897492 260.032425,41.1164102 C263.076024,49.8476696 266.279691,58.5250251 269.434061,67.2180302 C269.559911,67.5652172 269.751296,67.8892197 270.110288,68.635179 C270.524375,67.6521588 270.820732,67.0400896 271.045754,66.4030972 C274.083554,57.8063076 277.128893,49.212416 280.119136,40.5999768 C280.507125,39.4824869 280.933392,38.8333226 282.277725,38.8385391 C293.633227,38.8837488 304.988729,38.8634624 316.344231,38.8756342 C316.783256,38.8762139 317.222282,39.0031487 318,39.1237077 C316.967682,41.7389123 316.011337,44.2068958 315.021356,46.6592297 C303.361958,75.5522561 291.689221,104.438907 280.042002,133.335411 C277.780181,138.947784 277.824258,138.965172 271.788675,138.965172 C269.425942,138.964592 267.058569,138.880549 264.701056,138.994152 C263.218113,139.064285 262.476352,138.5067 261.916116,137.151569 C256.257503,123.451305 250.541476,109.775385 244.842846,96.0913498 C242.371662,90.1572929 239.873219,84.2336689 237.455971,78.2775868 C236.978668,77.1015562 236.295482,76.7485731 235.078739,76.7566876 C228.055494,76.8036361 221.03225,76.8134895 214.009005,76.7508915 C212.573619,76.7387197 212.022662,77.1154668 212.082977,78.6265126 C212.193169,81.3773462 212.113715,84.1357147 212.114295,86.8911851 C212.115455,95.2520731 217.326343,100.53117 225.71016,100.65057 C227.35143,100.674334 228.99444,100.702735 230.63281,100.636079 C231.76952,100.59029 232.415009,100.960661 232.848815,102.082209 C237.248927,113.460551 241.702395,124.818607 246.128025,136.187097 C246.377405,136.827567 246.506155,137.515565 246.706819,138.237181 C246.257354,138.390198 246.018413,138.542056 245.780052,138.540897 C237.053482,138.492209 228.249199,139.14659 219.615422,138.220372 C200.405601,136.158696 186.716944,125.85785 178.472316,108.377943 C178.03561,107.453463 177.650521,106.502901 177.018371,105.050976 C176.458715,106.359737 176.102043,107.167715 175.76683,107.982648 C168.202488,126.387614 149.474609,138.962853 129.624519,138.965172 C103.985327,138.96749 82.8599182,121.070263 79.0745576,95.7754618 C78.2458032,90.2413365 78.552019,84.5385443 78.3333763,78.9128404 C78.2881398,77.7559369 78.2318843,76.6001927 78.1663495,75.126242" id="Fill-1" fill="#FDC939"></path>
                    <text id="WINTER" font-family="Kanit-Black, Kanit" font-size="152" font-weight="700" letter-spacing="3.4000001" fill="#DEF0F7">
                        <tspan x="0" y="271">WINTE</tspan>
                        <tspan x="478.016" y="271">R</tspan>
                    </text>
                    <text id="WEEKENDER" font-family="Kanit-Light, Kanit" font-size="152" font-weight="300" letter-spacing="3.4000001" fill="#DEF0F7">
                        <tspan x="0" y="389">WEEKENDER</tspan>
                    </text>
                    <text id="TEN-YEAR-ANNIVERSARY" font-family="Kanit-Medium, Kanit" font-size="69" font-weight="400" letter-spacing="3.0999999" fill="#FFFFFF">
                        <tspan x="4" y="460">TEN YEAR ANNIVERSAR</tspan>
                        <tspan x="828.868998" y="460">Y</tspan>
                    </text>
                    <rect id="Rectangle" fill="#FDC938" x="659" y="0" width="209" height="76"></rect>
                    <rect id="Rectangle-Copy" fill="#FDC938" x="792" y="70" width="76" height="138"></rect>
                </g>
                <g id="Page-1" transform="translate(3028.000000, 186.000000)">
                    <path d="M418.2583,1.2142 C415.3373,12.6852 412.4773,24.0322 409.5703,35.4432 C409.3573,35.4332 409.1393,35.4292 408.9253,35.4192 C406.0283,23.9722 403.5623,12.4892 399.9823,1.2142 L373.0563,1.2142 C370.1923,12.6472 367.4033,23.9812 364.5393,35.4192 C360.7553,23.9942 358.1703,12.4342 354.4383,1.1662 C345.8313,1.1662 337.4613,1.2142 328.6173,1.2142 C335.1613,20.1402 339.9693,39.2602 347.0833,57.6932 L376.8683,57.6932 C377.3283,56.2562 377.8413,54.8812 378.2113,53.4732 C380.5103,44.7232 382.7773,35.9642 385.0723,27.2102 C385.2343,26.5942 385.5563,26.0162 386.0353,24.8662 C389.1273,36.2262 391.3843,47.1222 394.7703,57.7172 L423.5693,57.7172 C426.2673,52.7762 441.8983,4.5572 441.9313,1.1602 L418.2583,1.2142 Z" id="Fill-1" fill="#FEFEFE"></path>
                    <path d="M233.1694,10.7103 C233.0414,13.7593 232.9414,16.8093 232.8654,19.8613 C232.7904,22.8313 232.7614,25.7993 232.6994,29.5353 C231.3674,28.0523 230.5994,27.2133 229.8494,26.3583 C222.9454,18.5543 216.0314,10.7623 209.1694,2.9193 C207.9744,1.5533 205.8734,1.1883 204.0044,1.2113 L181.5934,1.1693 C179.9294,20.0383 179.9624,38.7123 181.5454,57.5153 C187.2934,58.1593 202.0564,57.9403 204.0954,57.2643 C203.8344,48.0933 203.5734,38.9433 203.3224,29.7973 C203.3034,29.1713 203.3834,28.5403 203.4404,27.9143 C203.4504,27.8443 203.5924,27.7723 203.6824,27.7203 C203.7634,27.6773 203.8624,27.6573 204.1944,27.5453 C205.5084,29.0233 206.9074,30.5693 208.2874,32.1353 C215.6044,40.4253 223.0924,48.5433 231.2584,56.0223 C232.6904,57.3353 234.1124,57.8753 236.0384,57.8423 C241.8284,57.7373 247.6184,57.8143 253.4084,57.7953 C254.3144,57.7953 255.2204,57.6773 255.9834,57.6183 L255.9834,1.2113 L233.6384,1.2073 C233.4684,4.6263 233.2974,7.6653 233.1694,10.7103" id="Fill-3" fill="#FEFEFE"></path>
                    <path d="M119.3677,23.5707 C112.2407,23.7167 105.1087,23.6237 97.5067,23.6237 C97.6537,20.4607 97.7817,17.7757 97.9097,14.9497 C105.2457,14.9497 112.1837,14.8437 119.1167,14.9967 C121.9377,15.0637 123.3697,16.7327 123.3557,19.1177 C123.3417,21.5647 121.8627,23.5177 119.3677,23.5707 M146.9007,40.5057 C145.9907,35.7437 143.2867,32.2997 138.8767,30.2337 C138.1517,29.8907 137.4267,29.5467 136.4347,29.0767 C137.2977,28.6637 137.8627,28.3827 138.4267,28.1237 C144.2927,25.4057 147.1047,20.7667 147.2047,14.3457 C147.3087,7.7167 144.5347,3.7067 138.0517,2.2457 C134.3907,1.4207 131.7547,1.2167 126.6847,1.2167 L79.7427,1.2167 L76.2517,1.2167 C73.8807,20.4227 73.8047,38.9067 76.2707,57.6197 L98.9297,57.6197 C98.4787,51.5957 98.0377,45.7737 97.5867,39.8217 C98.4217,39.6937 98.9247,39.5557 99.4227,39.5557 C104.4777,39.5427 109.5277,39.5237 114.5827,39.5707 C115.6217,39.5807 116.6647,39.8117 117.6937,40.0257 C121.1507,40.7427 123.2567,42.9317 124.0537,46.2807 C124.4847,48.1117 124.5327,50.0317 124.7837,51.9057 C125.0447,53.8407 124.8167,55.8927 125.9547,57.5817 L148.5937,57.5817 C148.2237,53.7457 147.8827,50.1017 147.5267,46.4567 C147.3377,44.4677 147.2757,42.4597 146.9007,40.5057" id="Fill-5" fill="#FEFEFE"></path>
                    <path d="M567.8994,23.5922 C567.2824,23.6962 566.6424,23.6872 566.0164,23.6872 C560.0364,23.6922 554.0614,23.6962 548.0814,23.6822 C547.4744,23.6822 546.0234,23.6922 546.0234,23.6922 L546.0234,14.9002 C549.4424,14.9002 552.6764,14.8952 555.9064,14.9002 C559.3684,14.9002 562.8344,14.8332 566.2914,14.9332 C568.4584,14.9982 570.4834,15.5162 571.2614,17.9782 C572.1294,20.7132 570.7114,23.1132 567.8994,23.5922 M594.5314,19.7982 C596.7834,12.0072 593.1414,5.0772 585.4124,2.5832 C581.3574,1.2712 577.1554,1.2142 572.9304,1.2142 C557.1294,1.2082 522.4694,1.2142 522.4694,1.2142 C522.4694,1.2142 522.5024,57.4602 522.5024,57.7212 C529.9094,57.8632 537.3074,57.8172 544.9424,57.7692 C545.3074,51.4982 545.6444,45.6612 546.0004,39.5812 C551.9754,39.5812 557.7414,39.5692 563.5124,39.5972 C564.1334,39.5972 564.7594,39.7802 565.3764,39.9192 C569.5544,40.8542 571.5794,43.1192 571.7074,47.3732 C571.7874,49.9952 571.5224,52.6332 571.4564,55.2652 C571.4324,56.0572 571.5604,56.8592 571.6174,57.6082 L594.8814,57.6082 C594.8814,55.0042 594.8484,52.6002 594.8914,50.1962 C594.9434,47.3552 595.2474,44.5052 595.1054,41.6742 C594.8534,36.5322 592.3824,32.7052 587.6924,30.4102 C586.8634,30.0032 586.0284,29.6012 584.9894,29.0932 C586.2464,28.4562 587.2994,27.9842 588.2994,27.4132 C591.3394,25.6742 593.5404,23.2402 594.5314,19.7982" id="Fill-7" fill="#FEFEFE"></path>
                    <path d="M489.0107,40.6635 C482.6947,43.5575 476.1547,43.5225 469.7767,40.7285 C466.4097,39.2555 464.3897,36.4905 463.5457,32.8875 C461.3737,23.6305 466.0537,17.0765 475.5337,16.1705 C476.7857,16.0525 477.1077,15.9905 479.3127,15.9905 C481.5127,15.9905 485.2077,16.5175 487.9487,17.4405 C492.9607,19.1345 495.4697,22.9565 495.7207,28.1835 C495.9867,33.6495 494.2227,38.2725 489.0107,40.6635 M504.7407,4.1055 C502.0327,2.9965 499.1737,2.1575 496.3037,1.5595 C486.9387,-0.3845 477.4447,-0.0475 467.9837,0.5455 C462.8287,0.8675 457.7697,1.9485 452.9987,4.0875 C445.9567,7.2505 441.6697,12.6085 440.1287,20.1735 C439.0427,25.4935 439.0667,30.8865 439.7537,36.2115 C441.0577,46.2885 446.6867,58.4715 478.5877,58.4715 C511.3797,58.4715 517.0657,45.4155 518.6777,38.0215 C519.8207,32.8095 519.8537,27.5375 519.0567,22.3155 C517.7337,13.6195 512.9157,7.4445 504.7407,4.1055" id="Fill-9" fill="#FEFEFE"></path>
                    <path d="M741.4443,34.9935 C740.8993,29.5975 737.8543,25.8975 732.9603,23.7025 C729.3843,22.2045 719.9713,20.9095 715.3763,20.5145 C710.6623,20.1075 705.9113,20.1445 701.1833,19.8765 C696.1713,19.4495 694.4253,17.3815 694.4353,15.6925 C694.4403,14.2225 696.5313,12.3885 703.1563,12.3885 C709.7803,12.3885 712.4693,13.2515 713.9393,17.5715 L739.4713,17.5715 C739.4093,12.6155 737.6033,8.6705 733.6483,6.1465 C730.9493,4.4215 727.8813,2.9235 724.7753,2.2495 C710.9473,-0.7565 696.9773,-0.4485 683.0303,1.4145 C680.3743,1.7695 677.7193,2.7615 675.2723,3.8935 C671.2223,5.7765 669.0693,9.1685 668.8513,13.6535 C668.7703,15.4365 668.8133,17.2395 668.9793,19.0135 C669.5953,25.6615 672.8963,30.4455 679.0663,33.1305 C682.6743,34.7045 686.4823,35.4965 690.3953,35.7155 C695.4403,35.9895 700.4953,36.0515 705.5363,36.4015 C707.8173,36.5575 710.1603,36.9245 712.3133,37.6595 C714.9163,38.5465 715.4433,41.9075 713.4513,43.8335 C712.8723,44.3965 712.0853,44.8715 711.3073,45.0955 C707.2863,46.2565 703.2173,46.3555 699.1583,45.3115 C696.8393,44.7155 695.2983,43.2455 694.7103,40.8645 C694.5583,40.2535 694.3503,39.6605 694.1653,39.0285 L668.4103,39.0285 C667.2293,45.6105 669.8193,51.3455 675.3293,54.4705 C678.6723,56.3665 682.3383,57.3345 686.1123,57.8275 C696.0763,59.1175 706.0823,58.7805 716.0643,58.2495 C719.5073,58.0635 722.9113,57.1785 726.3213,56.5425 C727.3453,56.3475 728.3413,55.9645 729.3283,55.6025 C738.5663,52.2175 742.5393,45.8095 741.4443,34.9935" id="Fill-11" fill="#FEFEFE"></path>
                    <g id="Group-15" transform="translate(0.000000, 0.224000)">
                        <mask id="mask-2" fill="white">
                            <use xlink:href="#path-1"></use>
                        </mask>
                        <g id="Clip-14"></g>
                        <path d="M43.9648,24.7607 C42.4088,24.9697 40.8208,24.9157 39.2418,24.9227 C33.9968,24.9417 28.7518,24.9317 22.9618,24.9317 C23.1558,21.6207 23.3268,18.6567 23.5068,15.6747 C23.5068,15.6747 25.5598,15.6567 26.4808,15.6567 C31.5258,15.6367 36.5758,15.6417 41.6218,15.6517 C42.3568,15.6517 43.0968,15.6417 43.8268,15.7177 C46.6338,16.0167 47.9048,17.3397 47.9238,19.9287 C47.9478,22.6457 46.5818,24.4137 43.9648,24.7607 M62.0268,2.5757 C58.0868,1.2637 53.8608,1.0017 49.7448,0.9887 C34.6888,0.9417 4.6288,0.9887 4.6288,0.9887 L2.1528,0.9887 C-0.7012,19.9237 -0.7732,38.6937 2.2668,57.4097 L24.8968,57.4097 C24.3938,52.2507 23.9008,47.2627 23.3648,41.7807 L27.0488,41.7807 C33.5748,41.7807 40.1048,41.8377 46.6298,41.7507 C49.3608,41.7187 52.1158,41.5677 54.8048,41.1307 C62.6918,39.8607 68.5388,35.9937 70.7058,27.8327 C71.9098,23.2957 72.0428,18.6537 71.4978,14.0377 C70.8188,8.2677 67.5808,4.4217 62.0268,2.5757" id="Fill-13" fill="#FEFEFE" mask="url(#mask-2)"></path>
                    </g>
                    <path d="M672.4907,0.9672 C672.4907,0.9672 653.0617,1.0322 645.3707,0.9672 C645.3707,0.9672 644.1607,1.4112 643.0087,2.4922 C637.0857,8.0362 631.1247,13.5372 625.1547,19.0252 C624.3717,19.7442 623.7647,20.8302 622.4847,20.8842 C621.9817,14.2432 621.4887,7.9712 620.9717,1.2132 L598.1057,1.2132 C599.9877,20.3582 599.8027,38.8272 598.1057,57.7812 C605.9677,57.8162 613.3847,57.8062 621.0577,57.7972 C621.5837,49.8922 622.0817,42.4372 622.6127,34.4882 C623.6987,35.6792 624.4097,36.4382 625.1027,37.2162 C630.6177,43.4462 636.1657,49.6502 641.6197,55.9332 C642.8427,57.3412 644.1517,57.8592 645.9867,57.8392 C654.0957,57.7592 662.2097,57.8062 670.3237,57.7972 C671.0067,57.7972 671.6937,57.7262 672.8887,57.6582 C663.3197,47.0562 654.1157,36.8562 644.6827,26.4042 C653.8167,18.0322 663.0397,9.6312 672.4907,0.9672" id="Fill-16" fill="#FEFEFE"></path>
                    <path d="M304.4897,17.9418 L326.3127,17.9418 L326.3127,1.2148 L260.0837,1.2148 C259.8607,6.8388 259.6427,12.2548 259.4107,18.0458 L281.4277,18.0458 C281.4277,24.9038 281.3857,31.3998 281.4427,37.8968 C281.4947,44.4788 281.3857,51.0708 281.9497,57.5628 C288.0577,58.1558 302.4307,57.9318 304.8217,57.1978 C304.4237,44.2648 304.1337,31.2658 304.4897,17.9418" id="Fill-18" fill="#FEFEFE"></path>
                    <path d="M175.938,1.2142 L153.949,1.2142 C151.758,8.8722 151.777,53.3242 154.11,57.6112 L176.057,57.6112 C175.796,48.0902 175.35,38.7582 175.345,29.4252 C175.34,20.0212 175.691,10.7172 175.938,1.2142" id="Fill-20" fill="#FEFEFE"></path>
                    <polygon id="Fill-22" fill="#FEFEFE" points="299.0503 87.7377 294.1943 87.7377 294.1943 113.8577 310.1943 113.8577 310.1943 109.9837 299.0503 109.9837"></polygon>
                    <path d="M333.4297,100.889 C333.4297,106.551 330.3237,110.312 325.3917,110.312 C320.6447,110.312 317.1737,106.621 317.1737,100.927 L317.1737,100.633 C317.1737,95.009 320.2037,91.243 325.3207,91.243 C330.4327,91.243 333.4297,95.227 333.4297,100.595 L333.4297,100.889 Z M325.3207,87.368 C317.5767,87.368 312.0947,93.035 312.0947,100.665 L312.0947,100.959 C312.0947,108.487 317.3207,114.224 325.3207,114.224 C333.2497,114.224 338.4707,108.487 338.4707,100.851 L338.4707,100.558 C338.4707,92.889 333.1027,87.368 325.3207,87.368 L325.3207,87.368 Z" id="Fill-24" fill="#FEFEFE"></path>
                    <polygon id="Fill-26" fill="#FEFEFE" points="359.9575 106.6244 348.9605 87.7354 343.1555 87.7354 343.1555 113.8544 347.5755 113.8544 347.5755 93.8394 359.3365 113.8544 364.3765 113.8544 364.3765 87.7354 359.9575 87.7354"></polygon>
                    <path d="M386.7397,100.889 C386.7397,106.66 383.9277,110.023 378.0807,110.023 L375.2307,110.023 L375.2307,91.571 L378.0477,91.571 C384.1837,91.571 386.7397,94.971 386.7397,100.595 L386.7397,100.889 Z M378.2987,87.74 L370.3747,87.74 L370.3747,113.86 L378.2277,113.86 C387.3987,113.86 391.8187,108.449 391.8187,100.851 L391.8187,100.524 C391.8187,92.921 387.3987,87.74 378.2987,87.74 L378.2987,87.74 Z" id="Fill-28" fill="#FEFEFE"></path>
                    <path d="M416.481,100.889 C416.481,106.551 413.375,110.312 408.443,110.312 C403.696,110.312 400.225,106.621 400.225,100.927 L400.225,100.633 C400.225,95.009 403.255,91.243 408.372,91.243 C413.484,91.243 416.481,95.227 416.481,100.595 L416.481,100.889 Z M408.372,87.368 C400.628,87.368 395.146,93.035 395.146,100.665 L395.146,100.959 C395.146,108.487 400.372,114.224 408.372,114.224 C416.296,114.224 421.522,108.487 421.522,100.851 L421.522,100.558 C421.522,92.889 416.154,87.368 408.372,87.368 L408.372,87.368 Z" id="Fill-30" fill="#FEFEFE"></path>
                    <polygon id="Fill-32" fill="#FEFEFE" points="443.0073 106.6244 432.0103 87.7354 426.2053 87.7354 426.2053 113.8544 430.6203 113.8544 430.6203 93.8394 442.3863 113.8544 447.4273 113.8544 447.4273 87.7354 443.0073 87.7354"></polygon>
                </g>
                <rect id="Rectangle-2" fill="#FDC938" x="8" y="528" width="3762" height="30"></rect>
            </g>
        </g>
    </g>
</svg>