<?xml version="1.0" encoding="UTF-8"?>
<svg width="550px" height="217px" viewBox="0 0 550 217" version="1.1" xmlns="http://www.w3.org/2000/svg" xmlns:xlink="http://www.w3.org/1999/xlink">
    <!-- Generator: Sketch 43.2 (39069) - http://www.bohemiancoding.com/sketch -->
    <title>lockup copy</title>
    <desc>Created with Sketch.</desc>
    <defs></defs>
    <g id="Page-1" stroke="none" stroke-width="1" fill="none" fill-rule="evenodd">
        <g id="lockup-copy">
            <rect id="Rectangle" fill="#FFFFFF" x="0" y="0" width="16" height="47"></rect>
            <rect id="Rectangle-Copy-2" fill="#FFFFFF" x="0" y="0" width="47" height="16"></rect>
            <rect id="Rectangle-Copy-5" fill="#FFFFFF" x="534" y="0" width="16" height="47"></rect>
            <rect id="Rectangle-Copy-4" fill="#FFFFFF" x="503" y="0" width="47" height="16"></rect>
            <path d="M27.0813158,35.8009474 L47.6133158,35.8009474 L51.8763158,57.2029474 L55.0953158,45.2839474 L55.0953158,35.8009474 L72.2343158,35.8009474 L78.4983158,57.2899474 L83.2833158,35.8009474 L103.728316,35.8009474 L90.7653158,91.8289474 L72.4083158,91.8289474 L65.7093158,69.7309474 L58.4883158,91.8289474 L40.1313158,91.8289474 L27.0813158,35.8009474 Z M115.374763,35.8009474 L136.428763,35.8009474 L136.428763,91.8289474 L115.374763,91.8289474 L115.374763,35.8009474 Z M149.81521,35.8009474 L167.47621,35.8009474 L183.13621,57.7249474 L183.13621,35.8009474 L204.19021,35.8009474 L204.19021,91.8289474 L186.44221,91.8289474 L170.86921,69.9049474 L170.86921,91.8289474 L149.81521,91.8289474 L149.81521,35.8009474 Z M228.364658,50.9389474 L214.096658,50.9389474 L214.096658,35.8009474 L263.686658,35.8009474 L263.686658,50.9389474 L249.418658,50.9389474 L249.418658,91.8289474 L228.364658,91.8289474 L228.364658,50.9389474 Z M273.593105,35.8009474 L318.398105,35.8009474 L318.398105,50.9389474 L294.647105,50.9389474 L294.647105,55.9849474 L315.092105,55.9849474 L315.092105,71.6449474 L294.647105,71.6449474 L294.647105,76.6909474 L318.398105,76.6909474 L318.398105,91.8289474 L273.593105,91.8289474 L273.593105,35.8009474 Z M329.174552,35.8009474 L360.668552,35.8009474 C367.570587,35.8009474 372.834034,37.7294281 376.459052,41.5864474 C380.08407,45.4434667 381.896552,50.503916 381.896552,56.7679474 C381.896552,60.3639653 380.983061,63.597433 379.156052,66.4684474 C377.329043,69.3394617 374.936567,71.7609375 371.978552,73.7329474 C373.080558,74.4869511 373.86355,75.4439416 374.327552,76.6039474 L380.939552,91.8289474 L359.015552,91.8289474 L353.534552,79.3879474 C353.244551,78.6919439 352.925554,78.2134487 352.577552,77.9524474 C352.22955,77.6914461 351.736555,77.5609474 351.098552,77.5609474 L350.228552,77.5609474 L350.228552,91.8289474 L329.174552,91.8289474 L329.174552,35.8009474 Z M355.361552,61.1179474 C358.783569,61.1179474 360.494552,59.6679619 360.494552,56.7679474 C360.494552,55.2019395 360.103056,54.056451 359.320052,53.3314474 C358.537048,52.6064437 357.33356,52.2439474 355.709552,52.2439474 L350.228552,52.2439474 L350.228552,61.1179474 L355.361552,61.1179474 Z" id="WINTER" fill="#FFFFFF"></path>
            <path d="M51.8294737,156.894737 L44.7894737,156.894737 L32.7894737,105.374737 L39.2694737,105.374737 L48.9494737,147.774737 L60.0694737,111.054737 L60.0694737,105.374737 L65.4294737,105.374737 L77.4294737,147.774737 L87.2694737,105.374737 L93.6694737,105.374737 L81.7494737,156.894737 L74.7894737,156.894737 L63.5894737,117.694737 L51.8294737,156.894737 Z M109.836532,105.374737 L144.636532,105.374737 L144.636532,110.574737 L116.396532,110.574737 L116.396532,128.574737 L141.756532,128.574737 L141.756532,133.694737 L116.396532,133.694737 L116.396532,151.774737 L144.636532,151.774737 L144.636532,156.894737 L109.836532,156.894737 L109.836532,105.374737 Z M160.80359,105.374737 L195.60359,105.374737 L195.60359,110.574737 L167.36359,110.574737 L167.36359,128.574737 L192.72359,128.574737 L192.72359,133.694737 L167.36359,133.694737 L167.36359,151.774737 L195.60359,151.774737 L195.60359,156.894737 L160.80359,156.894737 L160.80359,105.374737 Z M250.730648,156.894737 L243.690648,156.894737 L226.730648,130.254737 L218.330648,139.134737 L218.330648,156.894737 L211.770648,156.894737 L211.770648,105.374737 L218.330648,105.374737 L218.330648,130.894737 L242.410648,105.374737 L250.090648,105.374737 L230.890648,126.014737 L250.730648,156.894737 Z M266.897706,105.374737 L301.697706,105.374737 L301.697706,110.574737 L273.457706,110.574737 L273.457706,128.574737 L298.817706,128.574737 L298.817706,133.694737 L273.457706,133.694737 L273.457706,151.774737 L301.697706,151.774737 L301.697706,156.894737 L266.897706,156.894737 L266.897706,105.374737 Z M324.424764,156.894737 L317.864764,156.894737 L317.864764,105.374737 L323.784764,105.374737 L353.144764,146.814737 L353.144764,105.374737 L359.704764,105.374737 L359.704764,156.894737 L353.704764,156.894737 L324.424764,115.534737 L324.424764,156.894737 Z M414.111822,150.814737 C410.698472,154.86809 405.205193,156.894737 397.631822,156.894737 L377.471822,156.894737 L377.471822,105.374737 L397.631822,105.374737 C405.15186,105.374737 410.631805,107.414716 414.071822,111.494737 C417.511839,115.574757 419.231822,122.228024 419.231822,131.454737 C419.231822,140.308114 417.525173,146.761383 414.111822,150.814737 Z M411.071822,118.774737 C410.00515,115.761388 408.311834,113.64141 405.991822,112.414737 C403.671811,111.188064 400.485176,110.574737 396.431822,110.574737 L384.031822,110.574737 L384.031822,151.774737 L396.431822,151.774737 C400.271841,151.774737 403.351811,151.214742 405.671822,150.094737 C407.991834,148.974731 409.738483,146.948085 410.911822,144.014737 C412.085161,141.081389 412.671822,136.894764 412.671822,131.454737 C412.671822,126.01471 412.138494,121.788085 411.071822,118.774737 Z M435.39888,105.374737 L470.19888,105.374737 L470.19888,110.574737 L441.95888,110.574737 L441.95888,128.574737 L467.31888,128.574737 L467.31888,133.694737 L441.95888,133.694737 L441.95888,151.774737 L470.19888,151.774737 L470.19888,156.894737 L435.39888,156.894737 L435.39888,105.374737 Z M522.125938,130.854737 C520.259262,133.334749 517.53929,135.001399 513.965938,135.854737 C514.979277,136.441406 515.752602,137.1214 516.285938,137.894737 C516.819274,138.668074 517.432602,139.828062 518.125938,141.374737 L524.845938,156.894737 L518.125938,156.894737 L511.565938,141.934737 C510.819268,140.228062 509.925944,139.05474 508.885938,138.414737 C507.845933,137.774734 506.152617,137.454737 503.805938,137.454737 L492.925938,137.454737 L492.925938,156.894737 L486.365938,156.894737 L486.365938,105.374737 L509.005938,105.374737 C514.392632,105.374737 518.392592,106.774723 521.005938,109.574737 C523.619285,112.374751 524.925938,116.308045 524.925938,121.374737 C524.925938,125.214756 523.992614,128.374724 522.125938,130.854737 Z M518.365938,121.374737 C518.365938,114.174701 514.925973,110.574737 508.045938,110.574737 L492.925938,110.574737 L492.925938,132.334737 L507.165938,132.334737 C514.632642,132.334737 518.365938,128.68144 518.365938,121.374737 Z" id="WEEKENDER" fill="#FFFFFF"></path>
            <path d="M65.7519996,20.224 C64.1919918,18.8799933 63.4119996,16.8960131 63.4119996,14.272 C63.4119996,11.6479869 64.1839919,9.66400672 65.7279996,8.32 C67.2720073,6.97599328 69.5639844,6.304 72.6039996,6.304 C73.5480043,6.304 74.3999958,6.37199932 75.1599996,6.508 C75.9200034,6.64400068 76.6919957,6.85599856 77.4759996,7.144 L77.4759996,12.208 C76.0199923,11.5359966 74.5240073,11.2 72.9879996,11.2 C71.7879936,11.2 70.8800027,11.4319977 70.2639996,11.896 C69.6479965,12.3600023 69.3399996,13.1519944 69.3399996,14.272 C69.3399996,15.3760055 69.6559965,16.1639976 70.2879996,16.636 C70.9200028,17.1080024 71.8359936,17.344 73.0359996,17.344 C74.5720073,17.344 76.0679923,17.0080034 77.5239996,16.336 L77.5239996,21.4 C76.7399957,21.6880014 75.9680034,21.8999993 75.2079996,22.036 C74.4479958,22.1720007 73.5960043,22.24 72.6519996,22.24 C69.6119844,22.24 67.3120074,21.5680067 65.7519996,20.224 Z M80.4439996,6.544 L92.8039996,6.544 L92.8039996,10.72 L86.2519996,10.72 L86.2519996,12.112 L91.8919996,12.112 L91.8919996,16.432 L86.2519996,16.432 L86.2519996,17.824 L92.8039996,17.824 L92.8039996,22 L80.4439996,22 L80.4439996,6.544 Z M95.4839997,6.544 L101.292,6.544 L101.292,17.584 L107.604,17.584 L107.604,22 L95.4839997,22 L95.4839997,6.544 Z M109.684,6.544 L122.044,6.544 L122.044,10.72 L115.492,10.72 L115.492,12.112 L121.132,12.112 L121.132,16.432 L115.492,16.432 L115.492,17.824 L122.044,17.824 L122.044,22 L109.684,22 L109.684,6.544 Z M124.724,6.544 L133.892,6.544 C135.476008,6.544 136.703995,6.9239962 137.576,7.684 C138.448004,8.4440038 138.884,9.51999304 138.884,10.912 C138.884,11.6480037 138.756001,12.2919972 138.5,12.844 C138.243998,13.3960028 137.892002,13.8399983 137.444,14.176 C138.100003,14.4960016 138.591998,14.8879977 138.92,15.352 C139.248001,15.8160023 139.412,16.4719958 139.412,17.32 C139.412,18.7760073 138.932005,19.9199958 137.972,20.752 C137.011995,21.5840042 135.684008,22 133.988,22 L124.724,22 L124.724,6.544 Z M132.332,12.472 C133.100004,12.472 133.484,12.1280034 133.484,11.44 C133.484,11.1359985 133.388001,10.9000008 133.196,10.732 C133.003999,10.5639992 132.716002,10.48 132.332,10.48 L130.172,10.48 L130.172,12.472 L132.332,12.472 Z M132.332,18.064 C133.100004,18.064 133.484,17.7200034 133.484,17.032 C133.484,16.7279985 133.388001,16.4920008 133.196,16.324 C133.003999,16.1559992 132.716002,16.072 132.332,16.072 L130.172,16.072 L130.172,18.064 L132.332,18.064 Z M142.332,6.544 L151.02,6.544 C152.924009,6.544 154.375995,7.07599468 155.376,8.14 C156.376005,9.20400532 156.876,10.5999914 156.876,12.328 C156.876,13.320005 156.624002,14.211996 156.12,15.004 C155.615997,15.796004 154.956004,16.4639973 154.14,17.008 C154.444001,17.216001 154.659999,17.4799984 154.788,17.8 L156.612,22 L150.564,22 L149.052,18.568 C148.971999,18.375999 148.884,18.2440004 148.788,18.172 C148.691999,18.0999996 148.556001,18.064 148.38,18.064 L148.14,18.064 L148.14,22 L142.332,22 L142.332,6.544 Z M149.556,13.528 C150.500004,13.528 150.972,13.128004 150.972,12.328 C150.972,11.8959978 150.864001,11.580001 150.648,11.38 C150.431999,11.179999 150.100002,11.08 149.652,11.08 L148.14,11.08 L148.14,13.528 L149.556,13.528 Z M164.188,6.544 L170.212,6.544 L176.164,22 L170.116,22 L169.012,19.12 L165.388,19.12 L164.284,22 L158.236,22 L164.188,6.544 Z M168.364,15.16 L167.188,12.208 L166.012,15.16 L168.364,15.16 Z M179.06,10.72 L175.124,10.72 L175.124,6.544 L188.804,6.544 L188.804,10.72 L184.868,10.72 L184.868,22 L179.06,22 L179.06,10.72 Z M191.244,6.544 L197.052,6.544 L197.052,22 L191.244,22 L191.244,6.544 Z M200.452,6.544 L205.324,6.544 L209.644,12.592 L209.644,6.544 L215.452,6.544 L215.452,22 L210.556,22 L206.26,15.952 L206.26,22 L200.452,22 L200.452,6.544 Z M220.676,20.224 C219.139992,18.8799933 218.372,16.8960131 218.372,14.272 C218.372,11.663987 219.175992,9.68400676 220.784,8.332 C222.392008,6.97999324 224.723985,6.304 227.78,6.304 C228.788005,6.304 229.687996,6.35999944 230.48,6.472 C231.272004,6.58400056 232.027996,6.7599988 232.748,7 L232.748,11.944 C231.467993,11.4479975 229.940009,11.2 228.164,11.2 C226.947994,11.2 226.000003,11.4359976 225.32,11.908 C224.639996,12.3800024 224.3,13.1679945 224.3,14.272 C224.3,15.3920056 224.547997,16.1839977 225.044,16.648 C225.540002,17.1120023 226.299995,17.344 227.324,17.344 C227.836002,17.344 228.315998,17.2880006 228.764,17.176 L228.764,16.24 L226.196,16.24 L226.196,12.736 L233.564,12.736 L233.564,20.728 C232.827996,21.1760022 231.944005,21.5399986 230.912,21.82 C229.879995,22.1000014 228.700007,22.24 227.372,22.24 C224.443985,22.24 222.212008,21.5680067 220.676,20.224 Z M247.54,11.944 L244.924,12.328 L244.924,7.504 L253.348,6.304 L253.348,22 L247.54,22 L247.54,11.944 Z M258.14,20.236 C256.891994,18.8999933 256.268,16.9120132 256.268,14.272 C256.268,11.6319868 256.891994,9.64400668 258.14,8.308 C259.388006,6.97199332 261.363986,6.304 264.068,6.304 C266.772014,6.304 268.747994,6.97199332 269.996,8.308 C271.244006,9.64400668 271.868,11.6319868 271.868,14.272 C271.868,16.9120132 271.244006,18.8999933 269.996,20.236 C268.747994,21.5720067 266.772014,22.24 264.068,22.24 C261.363986,22.24 259.388006,21.5720067 258.14,20.236 Z M265.508,16.564 C265.796001,16.0759976 265.94,15.3120052 265.94,14.272 C265.94,13.2319948 265.796001,12.4680024 265.508,11.98 C265.219999,11.4919976 264.740003,11.248 264.068,11.248 C263.395997,11.248 262.916001,11.4919976 262.628,11.98 C262.339999,12.4680024 262.196,13.2319948 262.196,14.272 C262.196,15.3120052 262.339999,16.0759976 262.628,16.564 C262.916001,17.0520024 263.395997,17.296 264.068,17.296 C264.740003,17.296 265.219999,17.0520024 265.508,16.564 Z M288.82,16.384 L283.228,6.544 L289.276,6.544 L291.724,11.464 L294.172,6.544 L300.22,6.544 L294.628,16.384 L294.628,22 L288.82,22 L288.82,16.384 Z M303.14,6.544 L315.5,6.544 L315.5,10.72 L308.948,10.72 L308.948,12.112 L314.588,12.112 L314.588,16.432 L308.948,16.432 L308.948,17.824 L315.5,17.824 L315.5,22 L303.14,22 L303.14,6.544 Z M323.652,6.544 L329.676,6.544 L335.628,22 L329.58,22 L328.476,19.12 L324.852,19.12 L323.748,22 L317.7,22 L323.652,6.544 Z M327.828,15.16 L326.652,12.208 L325.476,15.16 L327.828,15.16 Z M338.548,6.544 L347.236,6.544 C349.14001,6.544 350.591995,7.07599468 351.592,8.14 C352.592005,9.20400532 353.092,10.5999914 353.092,12.328 C353.092,13.320005 352.840003,14.211996 352.336,15.004 C351.831998,15.796004 351.172004,16.4639973 350.356,17.008 C350.660002,17.216001 350.875999,17.4799984 351.004,17.8 L352.828,22 L346.78,22 L345.268,18.568 C345.188,18.375999 345.100001,18.2440004 345.004,18.172 C344.908,18.0999996 344.772001,18.064 344.596,18.064 L344.356,18.064 L344.356,22 L338.548,22 L338.548,6.544 Z M345.772,13.528 C346.716005,13.528 347.188,13.128004 347.188,12.328 C347.188,11.8959978 347.080001,11.580001 346.864,11.38 C346.647999,11.179999 346.316002,11.08 345.868,11.08 L344.356,11.08 L344.356,13.528 L345.772,13.528 Z M358.196,21.952 C357.187995,21.759999 356.348004,21.4960017 355.676,21.16 L355.676,16.816 C356.444004,17.1840018 357.295995,17.4879988 358.232,17.728 C359.168005,17.9680012 360.003996,18.088 360.74,18.088 C361.220003,18.088 361.595999,18.0280006 361.868,17.908 C362.140002,17.7879994 362.276,17.6160011 362.276,17.392 C362.276,17.199999 362.164001,17.0440006 361.94,16.924 C361.715999,16.8039994 361.300003,16.640001 360.692,16.432 C359.987997,16.1919988 359.588001,16.0560002 359.492,16.024 C358.467995,15.6399981 357.676003,15.2400021 357.116,14.824 C356.555997,14.4079979 356.152001,13.9120029 355.904,13.336 C355.655999,12.7599971 355.532,12.0240045 355.532,11.128 C355.532,9.49599184 356.095995,8.28400396 357.224,7.492 C358.352006,6.69999604 360.051989,6.304 362.324,6.304 C363.076004,6.304 363.947995,6.37999924 364.94,6.532 C365.932005,6.68400076 366.755997,6.85599904 367.412,7.048 L367.412,11.416 C365.891993,10.7919969 364.524006,10.48 363.308,10.48 C362.075994,10.48 361.46,10.679998 361.46,11.08 C361.46,11.2400008 361.571999,11.3719995 361.796,11.476 C362.020001,11.5800005 362.467997,11.727999 363.14,11.92 L363.764,12.088 C364.996006,12.4240017 365.935997,12.8359976 366.584,13.324 C367.232003,13.8120024 367.671999,14.3719968 367.904,15.004 C368.136001,15.6360032 368.252,16.4239953 368.252,17.368 C368.252,18.8720075 367.664006,20.0599956 366.488,20.932 C365.311994,21.8040044 363.604011,22.24 361.364,22.24 C360.259995,22.24 359.204005,22.144001 358.196,21.952 Z M381.712,20.368 C380.311993,19.1199938 379.612,17.0880141 379.612,14.272 C379.612,11.4559859 380.311993,9.42400624 381.712,8.176 C383.112007,6.92799376 385.171987,6.304 387.892,6.304 C390.612014,6.304 392.671993,6.92799376 394.072,8.176 C395.472007,9.42400624 396.172,11.4559859 396.172,14.272 C396.172,17.0880141 395.472007,19.1199938 394.072,20.368 C392.671993,21.6160062 390.612014,22.24 387.892,22.24 C385.171987,22.24 383.112007,21.6160062 381.712,20.368 Z M389.704,16.636 C390.064002,16.1799977 390.244,15.3920056 390.244,14.272 C390.244,13.1519944 390.064002,12.3640023 389.704,11.908 C389.343998,11.4519977 388.740004,11.224 387.892,11.224 C387.043996,11.224 386.440002,11.4519977 386.08,11.908 C385.719998,12.3640023 385.54,13.1519944 385.54,14.272 C385.54,15.3920056 385.719998,16.1799977 386.08,16.636 C386.440002,17.0920023 387.043996,17.32 387.892,17.32 C388.740004,17.32 389.343998,17.0920023 389.704,16.636 Z M399.092,6.544 L411.452,6.544 L411.452,10.72 L404.9,10.72 L404.9,12.112 L410.54,12.112 L410.54,16.432 L404.9,16.432 L404.9,22 L399.092,22 L399.092,6.544 Z M424.996,21.952 C423.987995,21.759999 423.148004,21.4960017 422.476,21.16 L422.476,16.816 C423.244004,17.1840018 424.095996,17.4879988 425.032,17.728 C425.968005,17.9680012 426.803997,18.088 427.54,18.088 C428.020003,18.088 428.395999,18.0280006 428.668,17.908 C428.940002,17.7879994 429.076,17.6160011 429.076,17.392 C429.076,17.199999 428.964001,17.0440006 428.74,16.924 C428.515999,16.8039994 428.100003,16.640001 427.492,16.432 C426.787997,16.1919988 426.388001,16.0560002 426.292,16.024 C425.267995,15.6399981 424.476003,15.2400021 423.916,14.824 C423.355998,14.4079979 422.952002,13.9120029 422.704,13.336 C422.455999,12.7599971 422.332,12.0240045 422.332,11.128 C422.332,9.49599184 422.895995,8.28400396 424.024,7.492 C425.152006,6.69999604 426.851989,6.304 429.124,6.304 C429.876004,6.304 430.747995,6.37999924 431.74,6.532 C432.732005,6.68400076 433.555997,6.85599904 434.212,7.048 L434.212,11.416 C432.691993,10.7919969 431.324006,10.48 430.108,10.48 C428.875994,10.48 428.26,10.679998 428.26,11.08 C428.26,11.2400008 428.371999,11.3719995 428.596,11.476 C428.820001,11.5800005 429.267997,11.727999 429.94,11.92 L430.564,12.088 C431.796006,12.4240017 432.735997,12.8359976 433.384,13.324 C434.032004,13.8120024 434.471999,14.3719968 434.704,15.004 C434.936001,15.6360032 435.052,16.4239953 435.052,17.368 C435.052,18.8720075 434.464006,20.0599956 433.288,20.932 C432.111994,21.8040044 430.404012,22.24 428.164,22.24 C427.059995,22.24 426.004005,22.144001 424.996,21.952 Z M437.972,6.544 L447.14,6.544 C448.724008,6.544 449.951996,6.9239962 450.824,7.684 C451.696005,8.4440038 452.132,9.51999304 452.132,10.912 C452.132,11.6480037 452.004002,12.2919972 451.748,12.844 C451.491999,13.3960028 451.140003,13.8399983 450.692,14.176 C451.348004,14.4960016 451.839999,14.8879977 452.168,15.352 C452.496002,15.8160023 452.66,16.4719958 452.66,17.32 C452.66,18.7760073 452.180005,19.9199958 451.22,20.752 C450.259996,21.5840042 448.932009,22 447.236,22 L437.972,22 L437.972,6.544 Z M445.58,12.472 C446.348004,12.472 446.732,12.1280034 446.732,11.44 C446.732,11.1359985 446.636001,10.9000008 446.444,10.732 C446.251999,10.5639992 445.964002,10.48 445.58,10.48 L443.42,10.48 L443.42,12.472 L445.58,12.472 Z M445.58,18.064 C446.348004,18.064 446.732,17.7200034 446.732,17.032 C446.732,16.7279985 446.636001,16.4920008 446.444,16.324 C446.251999,16.1559992 445.964002,16.072 445.58,16.072 L443.42,16.072 L443.42,18.064 L445.58,18.064 Z M457.956,10.72 L454.02,10.72 L454.02,6.544 L467.7,6.544 L467.7,10.72 L463.764,10.72 L463.764,22 L457.956,22 L457.956,10.72 Z M469.66,6.544 L475.708,6.544 L478.612,15.136 L481.54,6.544 L487.588,6.544 L481.636,22 L475.612,22 L469.66,6.544 Z" id="Celebrating-10-years" fill="#FFFFFF"></path>
            <rect id="Rectangle-Copy-3" fill="#FFFFFF" x="0" y="201" width="47" height="16"></rect>
            <rect id="Rectangle-Copy" fill="#FFFFFF" x="0" y="169" width="16" height="47"></rect>
            <rect id="Rectangle-2-Copy" fill="#FFFFFF" x="396.842105" y="35.9342105" width="62" height="56"></rect>
            <rect id="Rectangle-2-Copy-2" fill="#FFFFFF" x="462.842105" y="35.9342105" width="62" height="56"></rect>
            <path d="M420.567368,84.2363158 C419.702803,85.2629876 418.311413,85.7763158 416.393158,85.7763158 L411.286842,85.7763158 L411.286842,72.7268421 L416.393158,72.7268421 C418.297904,72.7268421 419.685917,73.2435475 420.557237,74.2769737 C421.428557,75.3103999 421.864211,76.9956024 421.864211,79.3326316 C421.864211,81.5750989 421.431934,83.209644 420.567368,84.2363158 Z M419.797368,76.1209211 C419.527192,75.3576716 419.098292,74.8207033 418.510658,74.51 C417.923023,74.1992967 417.115882,74.0439474 416.089211,74.0439474 L412.948421,74.0439474 L412.948421,84.4794737 L416.089211,84.4794737 C417.061847,84.4794737 417.841971,84.337633 418.429605,84.0539474 C419.01724,83.7702617 419.459648,83.2569335 419.756842,82.5139474 C420.054037,81.7709612 420.202632,80.7105332 420.202632,79.3326316 C420.202632,77.95473 420.067545,76.8841705 419.797368,76.1209211 Z M425.013443,72.7268421 L433.827917,72.7268421 L433.827917,74.0439474 L426.675022,74.0439474 L426.675022,78.6031579 L433.098443,78.6031579 L433.098443,79.9 L426.675022,79.9 L426.675022,84.4794737 L433.827917,84.4794737 L433.827917,85.7763158 L425.013443,85.7763158 L425.013443,72.7268421 Z M445.487676,83.9728947 L445.487676,85.4521053 C444.352933,85.8033351 443.09663,85.9789474 441.718728,85.9789474 C439.665385,85.9789474 438.108514,85.4048303 437.04807,84.2565789 C435.987626,83.1083276 435.457412,81.5345714 435.457412,79.5352632 C435.457412,77.3198135 435.967363,75.5974623 436.987281,74.3681579 C438.007198,73.1388535 439.577577,72.5242105 441.698465,72.5242105 C443.089875,72.5242105 444.352933,72.7268401 445.487676,73.1321053 L445.487676,74.5910526 C444.339424,74.1587698 443.123647,73.9426316 441.840307,73.9426316 C440.151702,73.9426316 438.942679,74.4154339 438.213202,75.3610526 C437.483725,76.3066714 437.118991,77.698061 437.118991,79.5352632 C437.118991,82.8854553 438.706256,84.5605263 441.880833,84.5605263 C443.245226,84.5605263 444.447495,84.3646511 445.487676,83.9728947 Z" id="DEC" fill="#302E2D"></path>
            <path d="M413.356579,51.2963816 L409.018092,51.9332237 L409.018092,43.9328947 L422.988816,41.9427632 L422.988816,67.9736842 L413.356579,67.9736842 L413.356579,51.2963816 Z M427.587946,65.6452303 C425.67741,63.8275677 424.722156,61.1674517 424.722156,57.6648026 L424.722156,53.2865132 C424.722156,51.1371603 425.232951,49.2001183 426.254557,47.4753289 C427.276163,45.7505396 428.762114,44.3972637 430.712452,43.4154605 C432.662791,42.4336574 434.964687,41.9427632 437.618209,41.9427632 C439.157252,41.9427632 440.49726,42.035635 441.638275,42.2213816 C442.779289,42.4071281 443.893752,42.7122786 444.981696,43.1368421 L444.981696,50.1023026 C443.999892,49.6777391 443.004837,49.3659549 441.996498,49.1669408 C440.98816,48.9679266 439.886965,48.8684211 438.69288,48.8684211 C437.658006,48.8684211 436.762456,48.9878278 436.006202,49.2266447 C435.249948,49.4654617 434.672816,49.7639785 434.274788,50.1222039 C433.876759,50.4804294 433.677748,50.8452832 433.677748,51.2167763 L433.677748,51.4555921 C434.181917,51.1637047 434.878457,50.9248913 435.767386,50.7391447 C436.656316,50.5533982 437.498797,50.4605263 438.294854,50.4605263 C441.505615,50.4605263 443.853947,51.1769665 445.339919,52.6098684 C446.825892,54.0427703 447.568867,56.1920909 447.568867,59.0578947 C447.568867,61.9236985 446.666683,64.1924259 444.862288,65.8641447 C443.057893,67.5358636 440.178865,68.3717105 436.225117,68.3717105 C432.37751,68.3717105 429.498482,67.4628929 427.587946,65.6452303 Z M438.334656,61.1873355 C438.785755,60.8025748 439.011301,60.212175 439.011301,59.4161184 C439.011301,58.6200618 438.81229,58.0230283 438.414261,57.625 C438.016233,57.2269717 437.339595,57.0279605 436.384327,57.0279605 C435.588271,57.0279605 434.686087,57.2667739 433.677748,57.7444079 L433.677748,59.0180921 C433.677748,59.9998953 433.890027,60.7030681 434.31459,61.1276316 C434.739154,61.5521951 435.402524,61.7644737 436.304722,61.7644737 C437.206919,61.7644737 437.883557,61.5720962 438.334656,61.1873355 Z" id="16" fill="#302E2D"></path>
            <path d="M486.488421,84.2363158 C485.623855,85.2629876 484.232466,85.7763158 482.314211,85.7763158 L477.207895,85.7763158 L477.207895,72.7268421 L482.314211,72.7268421 C484.218957,72.7268421 485.606969,73.2435475 486.478289,74.2769737 C487.34961,75.3103999 487.785263,76.9956024 487.785263,79.3326316 C487.785263,81.5750989 487.352987,83.209644 486.488421,84.2363158 Z M485.718421,76.1209211 C485.448244,75.3576716 485.019345,74.8207033 484.431711,74.51 C483.844076,74.1992967 483.036935,74.0439474 482.010263,74.0439474 L478.869474,74.0439474 L478.869474,84.4794737 L482.010263,84.4794737 C482.9829,84.4794737 483.763023,84.337633 484.350658,84.0539474 C484.938292,83.7702617 485.3807,83.2569335 485.677895,82.5139474 C485.975089,81.7709612 486.123684,80.7105332 486.123684,79.3326316 C486.123684,77.95473 485.988598,76.8841705 485.718421,76.1209211 Z M490.934496,72.7268421 L499.748969,72.7268421 L499.748969,74.0439474 L492.596075,74.0439474 L492.596075,78.6031579 L499.019496,78.6031579 L499.019496,79.9 L492.596075,79.9 L492.596075,84.4794737 L499.748969,84.4794737 L499.748969,85.7763158 L490.934496,85.7763158 L490.934496,72.7268421 Z M511.408728,83.9728947 L511.408728,85.4521053 C510.273986,85.8033351 509.017682,85.9789474 507.639781,85.9789474 C505.586437,85.9789474 504.029567,85.4048303 502.969123,84.2565789 C501.908679,83.1083276 501.378465,81.5345714 501.378465,79.5352632 C501.378465,77.3198135 501.888416,75.5974623 502.908333,74.3681579 C503.928251,73.1388535 505.49863,72.5242105 507.619518,72.5242105 C509.010928,72.5242105 510.273986,72.7268401 511.408728,73.1321053 L511.408728,74.5910526 C510.260477,74.1587698 509.044699,73.9426316 507.76136,73.9426316 C506.072755,73.9426316 504.863732,74.4154339 504.134254,75.3610526 C503.404777,76.3066714 503.040044,77.698061 503.040044,79.5352632 C503.040044,82.8854553 504.627309,84.5605263 507.801886,84.5605263 C509.166279,84.5605263 510.368548,84.3646511 511.408728,83.9728947 Z" id="DEC-Copy" fill="#302E2D"></path>
            <path d="M480.725,51.2963816 L476.386513,51.9332237 L476.386513,43.9328947 L490.357237,41.9427632 L490.357237,67.9736842 L480.725,67.9736842 L480.725,51.2963816 Z M500.44913,49.6644737 L491.692551,49.6644737 L491.692551,42.3407895 L511.355051,42.3407895 L511.355051,47.6345395 L502.71788,67.9736842 L492.687617,67.9736842 L500.44913,49.6644737 Z" id="17" fill="#302E2D"></path>
            <rect id="Rectangle-2" fill="#FFFFFF" x="258" y="172" width="292.368421" height="46.3157895"></rect>
            <path d="M304.405263,191.543158 L308.596842,191.543158 C309.214389,191.543158 309.733507,191.672455 310.154211,191.931053 C310.574914,192.18965 310.891402,192.538945 311.103684,192.978947 C311.315966,193.41895 311.422105,193.90912 311.422105,194.449474 C311.422105,194.989827 311.304387,195.479998 311.068947,195.92 C310.833508,196.360002 310.497721,196.705437 310.061579,196.956316 C309.625436,197.207194 309.121757,197.332632 308.550526,197.332632 L307.207368,197.332632 L307.207368,199 L304.405263,199 L304.405263,191.543158 Z M307.890526,195.144211 C308.114387,195.144211 308.28421,195.082457 308.4,194.958947 C308.51579,194.835438 308.573684,194.665615 308.573684,194.449474 C308.573684,193.970875 308.361406,193.731579 307.936842,193.731579 L307.207368,193.731579 L307.207368,195.144211 L307.890526,195.144211 Z M316.401053,191.543158 L320.592632,191.543158 C321.511233,191.543158 322.211752,191.799822 322.694211,192.313158 C323.176669,192.826494 323.417895,193.499996 323.417895,194.333684 C323.417895,194.812283 323.296317,195.24263 323.053158,195.624737 C322.809999,196.006844 322.491581,196.329121 322.097895,196.591579 C322.244562,196.69193 322.348772,196.819297 322.410526,196.973684 L323.290526,199 L320.372632,199 L319.643158,197.344211 C319.604561,197.251578 319.562106,197.187895 319.51579,197.153158 C319.469474,197.118421 319.40386,197.101053 319.318947,197.101053 L319.203158,197.101053 L319.203158,199 L316.401053,199 L316.401053,191.543158 Z M319.886316,194.912632 C320.341757,194.912632 320.569474,194.719651 320.569474,194.333684 C320.569474,194.125262 320.517369,193.972807 320.413158,193.876316 C320.308947,193.779824 320.148773,193.731579 319.932632,193.731579 L319.203158,193.731579 L319.203158,194.912632 L319.886316,194.912632 Z M328.628421,191.543158 L331.430526,191.543158 L331.430526,199 L328.628421,199 L328.628421,191.543158 Z M336.872632,191.543158 L339.223158,191.543158 L341.307369,194.461053 L341.307369,191.543158 L344.109474,191.543158 L344.109474,199 L341.747369,199 L339.674737,196.082105 L339.674737,199 L336.872632,199 L336.872632,191.543158 Z M350.987369,193.557895 L349.088421,193.557895 L349.088421,191.543158 L355.688421,191.543158 L355.688421,193.557895 L353.789474,193.557895 L353.789474,199 L350.987369,199 L350.987369,193.557895 Z M360.262106,191.543158 L362.994737,191.543158 L363.562106,194.391579 L363.990527,192.805263 L363.990527,191.543158 L366.271579,191.543158 L367.105264,194.403158 L367.742106,191.543158 L370.463158,191.543158 L368.737895,199 L366.294737,199 L365.403158,196.058947 L364.442106,199 L361.998948,199 L360.262106,191.543158 Z M375.702632,198.212632 C375.02719,197.610523 374.689474,196.630182 374.689474,195.271579 C374.689474,193.912976 375.02719,192.932635 375.702632,192.330526 C376.378074,191.728418 377.371924,191.427368 378.684211,191.427368 C379.996498,191.427368 380.990348,191.728418 381.66579,192.330526 C382.341232,192.932635 382.678948,193.912976 382.678948,195.271579 C382.678948,196.630182 382.341232,197.610523 381.66579,198.212632 C380.990348,198.81474 379.996498,199.115789 378.684211,199.115789 C377.371924,199.115789 376.378074,198.81474 375.702632,198.212632 Z M379.558421,196.412105 C379.732107,196.192104 379.818948,195.811933 379.818948,195.271579 C379.818948,194.731225 379.732107,194.351054 379.558421,194.131053 C379.384736,193.911052 379.093336,193.801053 378.684211,193.801053 C378.275086,193.801053 377.983685,193.911052 377.81,194.131053 C377.636315,194.351054 377.549474,194.731225 377.549474,195.271579 C377.549474,195.811933 377.636315,196.192104 377.81,196.412105 C377.983685,196.632106 378.275086,196.742105 378.684211,196.742105 C379.093336,196.742105 379.384736,196.632106 379.558421,196.412105 Z M387.889474,191.543158 L392.081053,191.543158 C392.999654,191.543158 393.700174,191.799822 394.182632,192.313158 C394.665091,192.826494 394.906316,193.499996 394.906316,194.333684 C394.906316,194.812283 394.784739,195.24263 394.541579,195.624737 C394.29842,196.006844 393.980002,196.329121 393.586316,196.591579 C393.732984,196.69193 393.837193,196.819297 393.898948,196.973684 L394.778948,199 L391.861053,199 L391.131579,197.344211 C391.092983,197.251578 391.050527,197.187895 391.004211,197.153158 C390.957895,197.118421 390.892282,197.101053 390.807369,197.101053 L390.691579,197.101053 L390.691579,199 L387.889474,199 L387.889474,191.543158 Z M391.374737,194.912632 C391.830178,194.912632 392.057895,194.719651 392.057895,194.333684 C392.057895,194.125262 392.00579,193.972807 391.901579,193.876316 C391.797368,193.779824 391.637195,193.731579 391.421053,193.731579 L390.691579,193.731579 L390.691579,194.912632 L391.374737,194.912632 Z M400.116843,191.543158 L402.918948,191.543158 L402.918948,193.627368 L404.551579,191.543158 L407.712632,191.543158 L405.165264,194.634737 L407.944211,199 L404.980001,199 L403.451579,196.406316 L402.918948,197.054737 L402.918948,199 L400.116843,199 L400.116843,191.543158 Z M414.208422,198.976842 C413.722103,198.88421 413.316844,198.756843 412.992632,198.594737 L412.992632,196.498947 C413.36316,196.676492 413.774209,196.823157 414.22579,196.938947 C414.677371,197.054737 415.080701,197.112632 415.43579,197.112632 C415.66737,197.112632 415.848772,197.083685 415.980001,197.025789 C416.111229,196.967894 416.176843,196.884913 416.176843,196.776842 C416.176843,196.68421 416.122808,196.608948 416.014737,196.551053 C415.906667,196.493158 415.705967,196.414036 415.412632,196.313684 C415.072981,196.197894 414.880001,196.132281 414.833685,196.116842 C414.339647,195.931578 413.957546,195.738597 413.687369,195.537895 C413.417192,195.337192 413.222282,195.097896 413.102632,194.82 C412.982982,194.542104 412.923159,194.18702 412.923159,193.754737 C412.923159,192.967364 413.195261,192.382633 413.739474,192.000526 C414.283688,191.618419 415.103855,191.427368 416.200001,191.427368 C416.562809,191.427368 416.983507,191.464035 417.462106,191.537368 C417.940705,191.610702 418.338245,191.693684 418.654737,191.786316 L418.654737,193.893684 C417.9214,193.59263 417.261407,193.442105 416.674737,193.442105 C416.080349,193.442105 415.783159,193.538596 415.783159,193.731579 C415.783159,193.808772 415.837193,193.872456 415.945264,193.922632 C416.053334,193.972807 416.269473,194.04421 416.593685,194.136842 L416.894737,194.217895 C417.489126,194.380001 417.942631,194.578771 418.255264,194.814211 C418.567897,195.04965 418.780176,195.319823 418.892106,195.624737 C419.004036,195.929651 419.060001,196.309822 419.060001,196.765263 C419.060001,197.490881 418.776319,198.064033 418.208948,198.484737 C417.641577,198.905441 416.81755,199.115789 415.736843,199.115789 C415.204208,199.115789 414.69474,199.069474 414.208422,198.976842 Z M423.309474,197.506316 L425.613685,197.506316 L424.861053,200.389474 L422.881053,200.389474 L423.309474,197.506316 Z" id="PRINTWORKS-," fill="#302E2D"></path>
            <path d="M443.731579,198.258947 L443.731579,199 L438.810526,199 L438.810526,191.543158 L439.76,191.543158 L439.76,198.258947 L443.731579,198.258947 Z M454.575263,198.189474 C454.015611,198.807021 453.149129,199.115789 451.97579,199.115789 C450.80245,199.115789 449.935968,198.807021 449.376316,198.189474 C448.816664,197.571927 448.536842,196.599305 448.536842,195.271579 C448.536842,193.943853 448.816664,192.971231 449.376316,192.353684 C449.935968,191.736137 450.80245,191.427368 451.97579,191.427368 C453.149129,191.427368 454.015611,191.736137 454.575263,192.353684 C455.134915,192.971231 455.414737,193.943853 455.414737,195.271579 C455.414737,196.599305 455.134915,197.571927 454.575263,198.189474 Z M454.198947,193.494211 C454.021403,193.050349 453.75123,192.730001 453.388421,192.533158 C453.025612,192.336315 452.55474,192.237895 451.97579,192.237895 C451.396839,192.237895 450.925967,192.336315 450.563158,192.533158 C450.200349,192.730001 449.930176,193.050349 449.752632,193.494211 C449.575087,193.938072 449.486316,194.530523 449.486316,195.271579 C449.486316,196.012635 449.575087,196.605086 449.752632,197.048947 C449.930176,197.492809 450.200349,197.813157 450.563158,198.01 C450.925967,198.206843 451.396839,198.305263 451.97579,198.305263 C452.55474,198.305263 453.025612,198.206843 453.388421,198.01 C453.75123,197.813157 454.021403,197.492809 454.198947,197.048947 C454.376492,196.605086 454.465263,196.012635 454.465263,195.271579 C454.465263,194.530523 454.376492,193.938072 454.198947,193.494211 Z M462.385263,199 L461.43579,199 L461.43579,191.543158 L462.292632,191.543158 L466.542105,197.541053 L466.542105,191.543158 L467.491579,191.543158 L467.491579,199 L466.623158,199 L462.385263,193.013684 L462.385263,199 Z M479.047369,198.12 C478.553331,198.70667 477.758251,199 476.662105,199 L473.744211,199 L473.744211,191.543158 L476.662105,191.543158 C477.750532,191.543158 478.543682,191.838418 479.041579,192.428947 C479.539476,193.019477 479.788421,193.982449 479.788421,195.317895 C479.788421,196.599305 479.541406,197.53333 479.047369,198.12 Z M478.607369,193.482632 C478.452982,193.046489 478.207897,192.73965 477.872105,192.562105 C477.536314,192.384561 477.075091,192.295789 476.488421,192.295789 L474.693684,192.295789 L474.693684,198.258947 L476.488421,198.258947 C477.044214,198.258947 477.489999,198.177896 477.82579,198.015789 C478.161581,197.853683 478.414385,197.560353 478.584211,197.135789 C478.754036,196.711226 478.838948,196.105267 478.838948,195.317895 C478.838948,194.530522 478.761755,193.918774 478.607369,193.482632 Z M491.616316,198.189474 C491.056664,198.807021 490.190182,199.115789 489.016842,199.115789 C487.843503,199.115789 486.977021,198.807021 486.417369,198.189474 C485.857717,197.571927 485.577895,196.599305 485.577895,195.271579 C485.577895,193.943853 485.857717,192.971231 486.417369,192.353684 C486.977021,191.736137 487.843503,191.427368 489.016842,191.427368 C490.190182,191.427368 491.056664,191.736137 491.616316,192.353684 C492.175968,192.971231 492.45579,193.943853 492.45579,195.271579 C492.45579,196.599305 492.175968,197.571927 491.616316,198.189474 Z M491.24,193.494211 C491.062456,193.050349 490.792283,192.730001 490.429474,192.533158 C490.066665,192.336315 489.595793,192.237895 489.016842,192.237895 C488.437892,192.237895 487.96702,192.336315 487.604211,192.533158 C487.241402,192.730001 486.971229,193.050349 486.793684,193.494211 C486.61614,193.938072 486.527369,194.530523 486.527369,195.271579 C486.527369,196.012635 486.61614,196.605086 486.793684,197.048947 C486.971229,197.492809 487.241402,197.813157 487.604211,198.01 C487.96702,198.206843 488.437892,198.305263 489.016842,198.305263 C489.595793,198.305263 490.066665,198.206843 490.429474,198.01 C490.792283,197.813157 491.062456,197.492809 491.24,197.048947 C491.417545,196.605086 491.506316,196.012635 491.506316,195.271579 C491.506316,194.530523 491.417545,193.938072 491.24,193.494211 Z M499.426316,199 L498.476842,199 L498.476842,191.543158 L499.333685,191.543158 L503.583158,197.541053 L503.583158,191.543158 L504.532632,191.543158 L504.532632,199 L503.664211,199 L499.426316,193.013684 L499.426316,199 Z" id="LONDON" fill="#302E2D"></path>
            <path d="M63.224,191.106 L60.39,191.522 L60.39,186.296 L69.516,184.996 L69.516,202 L63.224,202 L63.224,191.106 Z M73.0800386,200.934 C71.8320324,200.049996 71.2080386,198.706676 71.2080386,196.904 C71.2080386,196.210663 71.3640371,195.530337 71.6760386,194.863 C71.9880402,194.195663 72.3953694,193.680002 72.8980386,193.316 C72.49937,192.934665 72.1830398,192.479669 71.9490386,191.951 C71.7150374,191.422331 71.5980386,190.880669 71.5980386,190.326 C71.5980386,186.772649 74.0506808,184.996 78.9560386,184.996 C81.5560516,184.996 83.4410328,185.455329 84.6110386,186.374 C85.7810445,187.292671 86.3660386,188.609991 86.3660386,190.326 C86.3660386,190.880669 86.2533731,191.439664 86.0280386,192.003 C85.8027042,192.566336 85.4907073,193.029998 85.0920386,193.394 C85.6120412,193.810002 86.0193705,194.316997 86.3140386,194.915 C86.6087068,195.513003 86.7560386,196.175996 86.7560386,196.904 C86.7560386,198.706676 86.1277116,200.049996 84.8710386,200.934 C83.6143657,201.818004 81.6427187,202.26 78.9560386,202.26 C76.2866919,202.26 74.3280449,201.818004 73.0800386,200.934 Z M80.2170386,191.262 C80.3470393,191.053999 80.4120386,190.785335 80.4120386,190.456 C80.4120386,189.69333 79.9267101,189.312 78.9560386,189.312 C78.0200339,189.312 77.5520386,189.69333 77.5520386,190.456 C77.5520386,191.080003 77.8207026,191.443999 78.3580386,191.548 L79.5540386,191.782 C79.8660402,191.643333 80.087038,191.470001 80.2170386,191.262 Z M80.3470386,197.632 C80.6503735,197.423999 80.8020386,197.138002 80.8020386,196.774 C80.8020386,196.149997 80.4120425,195.751334 79.6320386,195.578 L78.1240386,195.266 C77.4827021,195.456668 77.1620386,195.889997 77.1620386,196.566 C77.1620386,197.484671 77.7600326,197.944 78.9560386,197.944 C79.5800417,197.944 80.0437038,197.840001 80.3470386,197.632 Z M91.0480772,196.67 L87.9280772,196.67 L87.9280772,191.886 L91.0480772,191.886 L91.0480772,189.156 L95.8320772,189.156 L95.8320772,191.886 L98.9520772,191.886 L98.9520772,196.67 L95.8320772,196.67 L95.8320772,199.4 L91.0480772,199.4 L91.0480772,196.67 Z M108.316154,199.218 C108.80149,198.437996 109.347485,197.710003 109.954154,197.034 C110.560824,196.357997 111.288817,195.647337 112.138154,194.902 C113.247493,193.948662 113.984153,193.268335 114.348154,192.861 C114.712156,192.453665 114.894154,192.024669 114.894154,191.574 C114.894154,190.759329 114.29616,190.352 113.100154,190.352 C111.696147,190.352 110.266162,190.663997 108.810154,191.288 L108.810154,186.062 C109.590158,185.732665 110.500149,185.472668 111.540154,185.282 C112.58016,185.091332 113.654816,184.996 114.764154,184.996 C116.930832,184.996 118.564482,185.485662 119.665154,186.465 C120.765827,187.444338 121.316154,188.774658 121.316154,190.456 C121.316154,191.496005 121.142823,192.349663 120.796154,193.017 C120.449486,193.684337 119.808159,194.433996 118.872154,195.266 L118.404154,195.682 C117.589484,196.358003 117.060822,196.869332 116.818154,197.216 L121.446154,197.216 L121.446154,202 L108.316154,202 L108.316154,199.218 Z M123.138193,185.256 L132.550193,185.256 C133.936867,185.256 135.102522,185.54633 136.047193,186.127 C136.991864,186.70767 137.702524,187.491995 138.179193,188.48 C138.655862,189.468005 138.894193,190.568661 138.894193,191.782 C138.894193,192.995339 138.629862,194.095995 138.101193,195.084 C137.572524,196.072005 136.818531,196.847664 135.839193,197.411 C134.859855,197.974336 133.728866,198.256 132.446193,198.256 L129.430193,198.256 L129.430193,202 L123.138193,202 L123.138193,185.256 Z M130.964193,193.342 C131.466862,193.342 131.848192,193.203335 132.108193,192.926 C132.368194,192.648665 132.498193,192.267336 132.498193,191.782 C132.498193,190.707328 132.021531,190.17 131.068193,190.17 L129.430193,190.17 L129.430193,193.342 L130.964193,193.342 Z M140.066232,185.256 L146.046232,185.256 L149.452232,192.172 L152.832232,185.256 L158.812232,185.256 L158.812232,202 L152.520232,202 L152.520232,196.124 L151.038232,199.14 L147.840232,199.14 L146.358232,196.124 L146.358232,202 L140.066232,202 L140.066232,185.256 Z M168.696309,191.886 L179.200309,191.886 L179.200309,196.67 L168.696309,196.67 L168.696309,191.886 Z M191.398386,191.106 L188.564386,191.522 L188.564386,186.296 L197.690386,184.996 L197.690386,202 L191.398386,202 L191.398386,191.106 Z M202.216425,191.106 L199.382425,191.522 L199.382425,186.296 L208.508425,184.996 L208.508425,202 L202.216425,202 L202.216425,191.106 Z M210.720463,185.256 L220.132463,185.256 C221.519137,185.256 222.684792,185.54633 223.629463,186.127 C224.574135,186.70767 225.284794,187.491995 225.761463,188.48 C226.238132,189.468005 226.476463,190.568661 226.476463,191.782 C226.476463,192.995339 226.212133,194.095995 225.683463,195.084 C225.154794,196.072005 224.400802,196.847664 223.421463,197.411 C222.442125,197.974336 221.311136,198.256 220.028463,198.256 L217.012463,198.256 L217.012463,202 L210.720463,202 L210.720463,185.256 Z M218.546463,193.342 C219.049133,193.342 219.430462,193.203335 219.690463,192.926 C219.950465,192.648665 220.080463,192.267336 220.080463,191.782 C220.080463,190.707328 219.603801,190.17 218.650463,190.17 L217.012463,190.17 L217.012463,193.342 L218.546463,193.342 Z M227.648502,185.256 L233.628502,185.256 L237.034502,192.172 L240.414502,185.256 L246.394502,185.256 L246.394502,202 L240.102502,202 L240.102502,196.124 L238.620502,199.14 L235.422502,199.14 L233.940502,196.124 L233.940502,202 L227.648502,202 L227.648502,185.256 Z" id="18+-2PM---11PM" fill="#FFFFFF"></path>
        </g>
    </g>
</svg>