<?xml version="1.0" encoding="UTF-8"?>
<svg width="400px" height="158px" viewBox="0 0 400 158" version="1.1" xmlns="http://www.w3.org/2000/svg" xmlns:xlink="http://www.w3.org/1999/xlink">
    <!-- Generator: Sketch 43.2 (39069) - http://www.bohemiancoding.com/sketch -->
    <title>lockup copy 3</title>
    <desc>Created with Sketch.</desc>
    <defs></defs>
    <g id="Page-1" stroke="none" stroke-width="1" fill="none" fill-rule="evenodd">
        <g id="lockup-copy-3">
            <rect id="Rectangle" fill="#FFFFFF" x="0" y="0" width="11.6363636" height="34.1818182"></rect>
            <rect id="Rectangle-Copy-2" fill="#FFFFFF" x="0" y="0" width="34.1818182" height="11.6363636"></rect>
            <rect id="Rectangle-Copy-5" fill="#FFFFFF" x="388.363636" y="0" width="11.6363636" height="34.1818182"></rect>
            <rect id="Rectangle-Copy-4" fill="#FFFFFF" x="365.818182" y="0" width="34.1818182" height="11.6363636"></rect>
            <path d="M19.6955024,26.0370526 L34.627866,26.0370526 L37.7282297,41.6021435 L40.0693206,32.9337799 L40.0693206,26.0370526 L52.5340478,26.0370526 L57.0896842,41.6654163 L60.5696842,26.0370526 L75.4387751,26.0370526 L66.0111388,66.784689 L52.6605933,66.784689 L47.7885933,50.7134163 L42.5369569,66.784689 L29.1864115,66.784689 L19.6955024,26.0370526 Z M83.9089186,26.0370526 L99.2209186,26.0370526 L99.2209186,66.784689 L83.9089186,66.784689 L83.9089186,26.0370526 Z M108.956517,26.0370526 L121.80088,26.0370526 L133.189971,41.9817799 L133.189971,26.0370526 L148.501971,26.0370526 L148.501971,66.784689 L135.594335,66.784689 L124.268517,50.8399617 L124.268517,66.784689 L108.956517,66.784689 L108.956517,26.0370526 Z M166.083387,37.0465072 L155.70666,37.0465072 L155.70666,26.0370526 L191.772115,26.0370526 L191.772115,37.0465072 L181.395387,37.0465072 L181.395387,66.784689 L166.083387,66.784689 L166.083387,37.0465072 Z M198.976804,26.0370526 L231.562258,26.0370526 L231.562258,37.0465072 L214.288804,37.0465072 L214.288804,40.7163254 L229.157894,40.7163254 L229.157894,52.1054163 L214.288804,52.1054163 L214.288804,55.7752344 L231.562258,55.7752344 L231.562258,66.784689 L198.976804,66.784689 L198.976804,26.0370526 Z M239.399674,26.0370526 L262.304402,26.0370526 C267.324063,26.0370526 271.152025,27.4395841 273.788402,30.244689 C276.424778,33.0497939 277.742947,36.7301208 277.742947,41.2857799 C277.742947,43.9010657 277.07859,46.2526786 275.749856,48.340689 C274.421122,50.4286994 272.68114,52.1897727 270.529856,53.6239617 C271.331315,54.1723281 271.900764,54.8683211 272.23822,55.7119617 L277.046947,66.784689 L261.10222,66.784689 L257.116038,57.736689 C256.905128,57.2305046 256.67313,56.8825081 256.420038,56.692689 C256.166946,56.5028699 255.808404,56.4079617 255.344402,56.4079617 L254.711674,56.4079617 L254.711674,66.784689 L239.399674,66.784689 L239.399674,26.0370526 Z M258.444765,44.4494163 C260.933505,44.4494163 262.177856,43.3948814 262.177856,41.2857799 C262.177856,40.1468651 261.893132,39.3137825 261.323674,38.7865072 C260.754217,38.2592318 259.878953,37.9955981 258.697856,37.9955981 L254.711674,37.9955981 L254.711674,44.4494163 L258.444765,44.4494163 Z" id="WINTER" fill="#FFFFFF"></path>
            <path d="M37.6941627,114.105263 L32.5741627,114.105263 L23.84689,76.6361722 L28.5596172,76.6361722 L35.5996172,107.472536 L43.68689,80.7670813 L43.68689,76.6361722 L47.5850718,76.6361722 L56.3123445,107.472536 L63.4687081,76.6361722 L68.1232536,76.6361722 L59.4541627,114.105263 L54.3923445,114.105263 L46.24689,85.5961722 L37.6941627,114.105263 Z M79.881114,76.6361722 L105.190205,76.6361722 L105.190205,80.4179904 L84.6520231,80.4179904 L84.6520231,93.5088995 L103.095659,93.5088995 L103.095659,97.2325359 L84.6520231,97.2325359 L84.6520231,110.381627 L105.190205,110.381627 L105.190205,114.105263 L79.881114,114.105263 L79.881114,76.6361722 Z M116.948065,76.6361722 L142.257156,76.6361722 L142.257156,80.4179904 L121.718974,80.4179904 L121.718974,93.5088995 L140.162611,93.5088995 L140.162611,97.2325359 L121.718974,97.2325359 L121.718974,110.381627 L142.257156,110.381627 L142.257156,114.105263 L116.948065,114.105263 L116.948065,76.6361722 Z M182.349562,114.105263 L177.229562,114.105263 L164.895017,94.7307177 L158.785926,101.1889 L158.785926,114.105263 L154.015017,114.105263 L154.015017,76.6361722 L158.785926,76.6361722 L158.785926,95.1961722 L176.298653,76.6361722 L181.884108,76.6361722 L167.920471,91.6470813 L182.349562,114.105263 Z M194.107423,76.6361722 L219.416513,76.6361722 L219.416513,80.4179904 L198.878332,80.4179904 L198.878332,93.5088995 L217.321968,93.5088995 L217.321968,97.2325359 L198.878332,97.2325359 L198.878332,110.381627 L219.416513,110.381627 L219.416513,114.105263 L194.107423,114.105263 L194.107423,76.6361722 Z M235.945283,114.105263 L231.174374,114.105263 L231.174374,76.6361722 L235.479828,76.6361722 L256.832556,106.774354 L256.832556,76.6361722 L261.603465,76.6361722 L261.603465,114.105263 L257.239828,114.105263 L235.945283,84.0252632 L235.945283,114.105263 Z M301.172234,109.683445 C298.689798,112.631339 294.694686,114.105263 289.18678,114.105263 L274.524962,114.105263 L274.524962,76.6361722 L289.18678,76.6361722 C294.655898,76.6361722 298.641313,78.1197938 301.143143,81.0870813 C303.644974,84.0543689 304.895871,88.8931084 304.895871,95.603445 C304.895871,102.042265 303.654671,106.735551 301.172234,109.683445 Z M298.961325,86.3816268 C298.185564,84.1901007 296.954061,82.6482979 295.26678,81.7561722 C293.579499,80.8640466 291.261946,80.4179904 288.314053,80.4179904 L279.295871,80.4179904 L279.295871,110.381627 L288.314053,110.381627 C291.106794,110.381627 293.346771,109.974358 295.034053,109.159809 C296.721334,108.345259 297.991624,106.871334 298.844962,104.73799 C299.698299,102.604646 300.124962,99.5598284 300.124962,95.603445 C300.124962,91.6470616 299.737087,88.5731529 298.961325,86.3816268 Z M316.653731,76.6361722 L341.962822,76.6361722 L341.962822,80.4179904 L321.42464,80.4179904 L321.42464,93.5088995 L339.868277,93.5088995 L339.868277,97.2325359 L321.42464,97.2325359 L321.42464,110.381627 L341.962822,110.381627 L341.962822,114.105263 L316.653731,114.105263 L316.653731,76.6361722 Z M379.727955,95.1670813 C378.370373,96.9707267 376.392211,98.1828358 373.79341,98.803445 C374.530383,99.2301138 375.092802,99.7246543 375.480682,100.287081 C375.868563,100.849508 376.314619,101.693136 376.818864,102.81799 L381.706137,114.105263 L376.818864,114.105263 L372.047955,103.225263 C371.504922,101.984045 370.855232,101.13072 370.098864,100.665263 C369.342497,100.199806 368.110994,99.9670813 366.404319,99.9670813 L358.491592,99.9670813 L358.491592,114.105263 L353.720682,114.105263 L353.720682,76.6361722 L370.186137,76.6361722 C374.103732,76.6361722 377.012794,77.6543439 378.91341,79.6907177 C380.814025,81.7270915 381.764319,84.587669 381.764319,88.2725359 C381.764319,91.0652771 381.085538,93.363436 379.727955,95.1670813 Z M376.99341,88.2725359 C376.99341,83.0361461 374.491617,80.4179904 369.487955,80.4179904 L358.491592,80.4179904 L358.491592,96.243445 L368.847955,96.243445 C374.278285,96.243445 376.99341,93.5865018 376.99341,88.2725359 Z" id="WEEKENDER" fill="#FFFFFF"></path>
            <path d="M47.8196361,14.7083636 C46.685085,13.7309042 46.1178179,12.2880095 46.1178179,10.3796364 C46.1178179,8.47126319 46.6792668,7.02836852 47.8021815,6.05090909 C48.9250962,5.07344966 50.5919887,4.58472727 52.8029088,4.58472727 C53.4894577,4.58472727 54.1090879,4.63418132 54.6618179,4.73309091 C55.2145479,4.83200049 55.7759969,4.98618077 56.3461815,5.19563636 L56.3461815,8.87854545 C55.2872672,8.38981574 54.199278,8.14545455 53.0821815,8.14545455 C52.2094499,8.14545455 51.5490929,8.31418013 51.1010906,8.65163636 C50.6530884,8.9890926 50.4290906,9.56508684 50.4290906,10.3796364 C50.4290906,11.1825495 50.6589065,11.7556346 51.1185452,12.0989091 C51.5781838,12.4421835 52.244359,12.6138182 53.1170906,12.6138182 C54.2341871,12.6138182 55.3221762,12.369457 56.3810906,11.8807273 L56.3810906,15.5636364 C55.810906,15.773092 55.249457,15.9272722 54.696727,16.0261818 C54.143997,16.1250914 53.5243668,16.1745455 52.8378179,16.1745455 C50.6268978,16.1745455 48.9541872,15.6858231 47.8196361,14.7083636 Z M58.504727,4.75927273 L67.4938179,4.75927273 L67.4938179,7.79636364 L62.728727,7.79636364 L62.728727,8.80872727 L66.8305452,8.80872727 L66.8305452,11.9505455 L62.728727,11.9505455 L62.728727,12.9629091 L67.4938179,12.9629091 L67.4938179,16 L58.504727,16 L58.504727,4.75927273 Z M69.4429089,4.75927273 L73.6669089,4.75927273 L73.6669089,12.7883636 L78.2574543,12.7883636 L78.2574543,16 L69.4429089,16 L69.4429089,4.75927273 Z M79.7701816,4.75927273 L88.7592725,4.75927273 L88.7592725,7.79636364 L83.9941816,7.79636364 L83.9941816,8.80872727 L88.0959998,8.80872727 L88.0959998,11.9505455 L83.9941816,11.9505455 L83.9941816,12.9629091 L88.7592725,12.9629091 L88.7592725,16 L79.7701816,16 L79.7701816,4.75927273 Z M90.7083634,4.75927273 L97.3759998,4.75927273 C98.5280056,4.75927273 99.4210875,5.0356336 100.055273,5.58836364 C100.689458,6.14109367 101.006545,6.9236313 101.006545,7.936 C101.006545,8.4712754 100.913455,8.93963436 100.727273,9.34109091 C100.54109,9.74254746 100.285092,10.0654533 99.9592725,10.3098182 C100.436366,10.5425466 100.79418,10.8276347 101.032727,11.1650909 C101.271274,11.5025471 101.390545,11.9796333 101.390545,12.5963636 C101.390545,13.655278 101.041458,14.4872697 100.343273,15.0923636 C99.6450872,15.6974576 98.6792787,16 97.445818,16 L90.7083634,16 L90.7083634,4.75927273 Z M96.2414543,9.07054545 C96.8000026,9.07054545 97.0792725,8.82036614 97.0792725,8.32 C97.0792725,8.09890799 97.009455,7.92727334 96.869818,7.80509091 C96.7301809,7.68290848 96.5207285,7.62181818 96.2414543,7.62181818 L94.6705453,7.62181818 L94.6705453,9.07054545 L96.2414543,9.07054545 Z M96.2414543,13.1374545 C96.8000026,13.1374545 97.0792725,12.8872752 97.0792725,12.3869091 C97.0792725,12.1658171 97.009455,11.9941824 96.869818,11.872 C96.7301809,11.7498176 96.5207285,11.6887273 96.2414543,11.6887273 L94.6705453,11.6887273 L94.6705453,13.1374545 L96.2414543,13.1374545 Z M103.514182,4.75927273 L109.832727,4.75927273 C111.217461,4.75927273 112.273451,5.14617795 113.000727,5.92 C113.728003,6.69382205 114.091636,7.70908463 114.091636,8.96581818 C114.091636,9.68727633 113.908365,10.3359971 113.541818,10.912 C113.175271,11.4880029 112.695276,11.9738162 112.101818,12.3694545 C112.32291,12.520728 112.479999,12.7127261 112.573091,12.9454545 L113.899636,16 L109.501091,16 L108.401454,13.504 C108.343272,13.3643629 108.279273,13.2683639 108.209454,13.216 C108.139636,13.1636361 108.040728,13.1374545 107.912727,13.1374545 L107.738182,13.1374545 L107.738182,16 L103.514182,16 L103.514182,4.75927273 Z M108.768,9.83854545 C109.454549,9.83854545 109.797818,9.54763927 109.797818,8.96581818 C109.797818,8.65163479 109.719273,8.42181891 109.562182,8.27636364 C109.40509,8.13090836 109.163638,8.05818182 108.837818,8.05818182 L107.738182,8.05818182 L107.738182,9.83854545 L108.768,9.83854545 Z M119.409454,4.75927273 L123.790545,4.75927273 L128.119273,16 L123.720727,16 L122.917818,13.9054545 L120.282182,13.9054545 L119.479273,16 L115.080727,16 L119.409454,4.75927273 Z M122.446545,11.0254545 L121.591273,8.87854545 L120.736,11.0254545 L122.446545,11.0254545 Z M130.225454,7.79636364 L127.362909,7.79636364 L127.362909,4.75927273 L137.312,4.75927273 L137.312,7.79636364 L134.449454,7.79636364 L134.449454,16 L130.225454,16 L130.225454,7.79636364 Z M139.086545,4.75927273 L143.310545,4.75927273 L143.310545,16 L139.086545,16 L139.086545,4.75927273 Z M145.783273,4.75927273 L149.326545,4.75927273 L152.468364,9.15781818 L152.468364,4.75927273 L156.692364,4.75927273 L156.692364,16 L153.131636,16 L150.007273,11.6014545 L150.007273,16 L145.783273,16 L145.783273,4.75927273 Z M160.491636,14.7083636 C159.37454,13.7309042 158.816,12.2880095 158.816,10.3796364 C158.816,8.48289961 159.400721,7.04291401 160.570182,6.05963636 C161.739642,5.07635872 163.435625,4.58472727 165.658182,4.58472727 C166.391276,4.58472727 167.045815,4.62545414 167.621818,4.70690909 C168.197821,4.78836404 168.747634,4.91636276 169.271273,5.09090909 L169.271273,8.68654545 C168.340359,8.32581638 167.229097,8.14545455 165.937454,8.14545455 C165.053086,8.14545455 164.363639,8.31708919 163.869091,8.66036364 C163.374543,9.00363808 163.127273,9.57672326 163.127273,10.3796364 C163.127273,11.1941859 163.307634,11.7701801 163.668364,12.1076364 C164.029093,12.4450926 164.581814,12.6138182 165.326545,12.6138182 C165.698911,12.6138182 166.047998,12.5730913 166.373818,12.4916364 L166.373818,11.8109091 L164.506182,11.8109091 L164.506182,9.26254545 L169.864727,9.26254545 L169.864727,15.0749091 C169.329452,15.4007289 168.686549,15.6654535 167.936,15.8690909 C167.185451,16.0727283 166.327277,16.1745455 165.361454,16.1745455 C163.231989,16.1745455 161.608733,15.6858231 160.491636,14.7083636 Z M180.029091,8.68654545 L178.126545,8.96581818 L178.126545,5.45745455 L184.253091,4.58472727 L184.253091,16 L180.029091,16 L180.029091,8.68654545 Z M187.738182,14.7170909 C186.830541,13.7454497 186.376727,12.299646 186.376727,10.3796364 C186.376727,8.45962676 186.830541,7.01382304 187.738182,6.04218182 C188.645823,5.0705406 190.082899,4.58472727 192.049455,4.58472727 C194.01601,4.58472727 195.453086,5.0705406 196.360727,6.04218182 C197.268368,7.01382304 197.722182,8.45962676 197.722182,10.3796364 C197.722182,12.299646 197.268368,13.7454497 196.360727,14.7170909 C195.453086,15.6887321 194.01601,16.1745455 192.049455,16.1745455 C190.082899,16.1745455 188.645823,15.6887321 187.738182,14.7170909 Z M193.096727,12.0465455 C193.306183,11.6916346 193.410909,11.1360038 193.410909,10.3796364 C193.410909,9.62326895 193.306183,9.06763814 193.096727,8.71272727 C192.887272,8.35781641 192.538184,8.18036364 192.049455,8.18036364 C191.560725,8.18036364 191.211637,8.35781641 191.002182,8.71272727 C190.792726,9.06763814 190.688,9.62326895 190.688,10.3796364 C190.688,11.1360038 190.792726,11.6916346 191.002182,12.0465455 C191.211637,12.4014563 191.560725,12.5789091 192.049455,12.5789091 C192.538184,12.5789091 192.887272,12.4014563 193.096727,12.0465455 Z M210.050909,11.9156364 L205.984,4.75927273 L210.382545,4.75927273 L212.162909,8.33745455 L213.943273,4.75927273 L218.341818,4.75927273 L214.274909,11.9156364 L214.274909,16 L210.050909,16 L210.050909,11.9156364 Z M220.465455,4.75927273 L229.454546,4.75927273 L229.454546,7.79636364 L224.689455,7.79636364 L224.689455,8.80872727 L228.791273,8.80872727 L228.791273,11.9505455 L224.689455,11.9505455 L224.689455,12.9629091 L229.454546,12.9629091 L229.454546,16 L220.465455,16 L220.465455,4.75927273 Z M235.383273,4.75927273 L239.764364,4.75927273 L244.093091,16 L239.694546,16 L238.891636,13.9054545 L236.256,13.9054545 L235.453091,16 L231.054546,16 L235.383273,4.75927273 Z M238.420364,11.0254545 L237.565091,8.87854545 L236.709818,11.0254545 L238.420364,11.0254545 Z M246.216727,4.75927273 L252.535273,4.75927273 C253.920007,4.75927273 254.975996,5.14617795 255.703273,5.92 C256.430549,6.69382205 256.794182,7.70908463 256.794182,8.96581818 C256.794182,9.68727633 256.610911,10.3359971 256.244364,10.912 C255.877816,11.4880029 255.397821,11.9738162 254.804364,12.3694545 C255.025456,12.520728 255.182545,12.7127261 255.275636,12.9454545 L256.602182,16 L252.203636,16 L251.104,13.504 C251.045818,13.3643629 250.981819,13.2683639 250.912,13.216 C250.842182,13.1636361 250.743273,13.1374545 250.615273,13.1374545 L250.440727,13.1374545 L250.440727,16 L246.216727,16 L246.216727,4.75927273 Z M251.470546,9.83854545 C252.157094,9.83854545 252.500364,9.54763927 252.500364,8.96581818 C252.500364,8.65163479 252.421819,8.42181891 252.264727,8.27636364 C252.107636,8.13090836 251.866184,8.05818182 251.540364,8.05818182 L250.440727,8.05818182 L250.440727,9.83854545 L251.470546,9.83854545 Z M260.506182,15.9650909 C259.773087,15.8254538 259.162184,15.6334558 258.673455,15.3890909 L258.673455,12.2298182 C259.232003,12.4974559 259.851633,12.7185446 260.532364,12.8930909 C261.213094,13.0676372 261.821088,13.1549091 262.356364,13.1549091 C262.705456,13.1549091 262.978908,13.1112732 263.176727,13.024 C263.374547,12.9367268 263.473455,12.8116372 263.473455,12.6487273 C263.473455,12.5090902 263.392001,12.3956368 263.229091,12.3083636 C263.066181,12.2210905 262.763639,12.1018189 262.321455,11.9505455 C261.809452,11.7759991 261.518546,11.677091 261.448727,11.6538182 C260.703996,11.3745441 260.128002,11.0836379 259.720727,10.7810909 C259.313453,10.4785439 259.019637,10.1178203 258.839273,9.69890909 C258.658908,9.27999791 258.568727,8.74473053 258.568727,8.09309091 C258.568727,6.90617588 258.978905,6.02473015 259.799273,5.44872727 C260.619641,4.87272439 261.855992,4.58472727 263.508364,4.58472727 C264.055276,4.58472727 264.689451,4.63999945 265.410909,4.75054545 C266.132367,4.86109146 266.731634,4.98618112 267.208727,5.12581818 L267.208727,8.30254545 C266.103267,7.848725 265.108368,7.62181818 264.224,7.62181818 C263.327996,7.62181818 262.88,7.76727127 262.88,8.05818182 C262.88,8.17454604 262.961454,8.27054508 263.124364,8.34618182 C263.287274,8.42181856 263.613089,8.52945385 264.101818,8.66909091 L264.555636,8.79127273 C265.451641,9.03563759 266.13527,9.33527095 266.606546,9.69018182 C267.077821,10.0450927 267.397817,10.4523613 267.566546,10.912 C267.735274,11.3716387 267.819636,11.9447238 267.819636,12.6312727 C267.819636,13.7250964 267.392004,14.5890877 266.536727,15.2232727 C265.68145,15.8574577 264.439281,16.1745455 262.810182,16.1745455 C262.007269,16.1745455 261.239277,16.104728 260.506182,15.9650909 Z M277.608727,14.8130909 C276.590541,13.90545 276.081455,12.4276466 276.081455,10.3796364 C276.081455,8.33162612 276.590541,6.85382272 277.608727,5.94618182 C278.626914,5.03854092 280.125081,4.58472727 282.103273,4.58472727 C284.081465,4.58472727 285.579631,5.03854092 286.597818,5.94618182 C287.616005,6.85382272 288.125091,8.33162612 288.125091,10.3796364 C288.125091,12.4276466 287.616005,13.90545 286.597818,14.8130909 C285.579631,15.7207318 284.081465,16.1745455 282.103273,16.1745455 C280.125081,16.1745455 278.626914,15.7207318 277.608727,14.8130909 Z M283.421091,12.0989091 C283.682911,11.7672711 283.813818,11.1941859 283.813818,10.3796364 C283.813818,9.56508684 283.682911,8.99200166 283.421091,8.66036364 C283.159272,8.32872561 282.720003,8.16290909 282.103273,8.16290909 C281.486543,8.16290909 281.047274,8.32872561 280.785455,8.66036364 C280.523635,8.99200166 280.392727,9.56508684 280.392727,10.3796364 C280.392727,11.1941859 280.523635,11.7672711 280.785455,12.0989091 C281.047274,12.4305471 281.486543,12.5963636 282.103273,12.5963636 C282.720003,12.5963636 283.159272,12.4305471 283.421091,12.0989091 Z M290.248727,4.75927273 L299.237818,4.75927273 L299.237818,7.79636364 L294.472727,7.79636364 L294.472727,8.80872727 L298.574546,8.80872727 L298.574546,11.9505455 L294.472727,11.9505455 L294.472727,16 L290.248727,16 L290.248727,4.75927273 Z M309.088,15.9650909 C308.354906,15.8254538 307.744003,15.6334558 307.255273,15.3890909 L307.255273,12.2298182 C307.813821,12.4974559 308.433451,12.7185446 309.114182,12.8930909 C309.794913,13.0676372 310.402907,13.1549091 310.938182,13.1549091 C311.287275,13.1549091 311.560727,13.1112732 311.758546,13.024 C311.956365,12.9367268 312.055273,12.8116372 312.055273,12.6487273 C312.055273,12.5090902 311.973819,12.3956368 311.810909,12.3083636 C311.647999,12.2210905 311.345457,12.1018189 310.903273,11.9505455 C310.39127,11.7759991 310.100364,11.677091 310.030546,11.6538182 C309.285815,11.3745441 308.70982,11.0836379 308.302546,10.7810909 C307.895271,10.4785439 307.601456,10.1178203 307.421091,9.69890909 C307.240727,9.27999791 307.150546,8.74473053 307.150546,8.09309091 C307.150546,6.90617588 307.560723,6.02473015 308.381091,5.44872727 C309.201459,4.87272439 310.43781,4.58472727 312.090182,4.58472727 C312.637094,4.58472727 313.271269,4.63999945 313.992727,4.75054545 C314.714186,4.86109146 315.313452,4.98618112 315.790546,5.12581818 L315.790546,8.30254545 C314.685086,7.848725 313.690186,7.62181818 312.805818,7.62181818 C311.909814,7.62181818 311.461818,7.76727127 311.461818,8.05818182 C311.461818,8.17454604 311.543272,8.27054508 311.706182,8.34618182 C311.869092,8.42181856 312.194907,8.52945385 312.683637,8.66909091 L313.137455,8.79127273 C314.033459,9.03563759 314.717089,9.33527095 315.188364,9.69018182 C315.659639,10.0450927 315.979636,10.4523613 316.148364,10.912 C316.317092,11.3716387 316.401455,11.9447238 316.401455,12.6312727 C316.401455,13.7250964 315.973823,14.5890877 315.118546,15.2232727 C314.263269,15.8574577 313.021099,16.1745455 311.392,16.1745455 C310.589087,16.1745455 309.821095,16.104728 309.088,15.9650909 Z M318.525091,4.75927273 L325.192728,4.75927273 C326.344733,4.75927273 327.237815,5.0356336 327.872,5.58836364 C328.506185,6.14109367 328.823273,6.9236313 328.823273,7.936 C328.823273,8.4712754 328.730183,8.93963436 328.544,9.34109091 C328.357817,9.74254746 328.10182,10.0654533 327.776,10.3098182 C328.253094,10.5425466 328.610908,10.8276347 328.849455,11.1650909 C329.088001,11.5025471 329.207273,11.9796333 329.207273,12.5963636 C329.207273,13.655278 328.858186,14.4872697 328.16,15.0923636 C327.461815,15.6974576 326.496006,16 325.262546,16 L318.525091,16 L318.525091,4.75927273 Z M324.058182,9.07054545 C324.61673,9.07054545 324.896,8.82036614 324.896,8.32 C324.896,8.09890799 324.826183,7.92727334 324.686546,7.80509091 C324.546909,7.68290848 324.337456,7.62181818 324.058182,7.62181818 L322.487273,7.62181818 L322.487273,9.07054545 L324.058182,9.07054545 Z M324.058182,13.1374545 C324.61673,13.1374545 324.896,12.8872752 324.896,12.3869091 C324.896,12.1658171 324.826183,11.9941824 324.686546,11.872 C324.546909,11.7498176 324.337456,11.6887273 324.058182,11.6887273 L322.487273,11.6887273 L322.487273,13.1374545 L324.058182,13.1374545 Z M333.058909,7.79636364 L330.196364,7.79636364 L330.196364,4.75927273 L340.145455,4.75927273 L340.145455,7.79636364 L337.282909,7.79636364 L337.282909,16 L333.058909,16 L333.058909,7.79636364 Z M341.570909,4.75927273 L345.969455,4.75927273 L348.081455,11.008 L350.210909,4.75927273 L354.609455,4.75927273 L350.280728,16 L345.899637,16 L341.570909,4.75927273 Z" id="Celebrating-10-years" fill="#FFFFFF"></path>
            <rect id="Rectangle-Copy-3" fill="#FFFFFF" x="0" y="146.181818" width="34.1818182" height="11.6363636"></rect>
            <rect id="Rectangle-Copy" fill="#FFFFFF" x="0" y="122.909091" width="11.6363636" height="34.1818182"></rect>
            <rect id="Rectangle-2-Copy" fill="#FFFFFF" x="288.61244" y="26.1339713" width="45.0909091" height="40.7272727"></rect>
            <rect id="Rectangle-2-Copy-2" fill="#FFFFFF" x="336.61244" y="26.1339713" width="45.0909091" height="40.7272727"></rect>
            <path d="M305.867177,61.2627751 C305.238402,62.0094455 304.226482,62.3827751 302.831388,62.3827751 L299.117703,62.3827751 L299.117703,52.8922488 L302.831388,52.8922488 C304.216658,52.8922488 305.226121,53.2680345 305.859809,54.0196172 C306.493496,54.7711999 306.810335,55.9968017 306.810335,57.6964593 C306.810335,59.3273447 306.495952,60.5161047 305.867177,61.2627751 Z M305.307177,55.3606699 C305.110685,54.8055794 304.798758,54.415057 304.371388,54.1890909 C303.944017,53.9631249 303.357005,53.8501435 302.610335,53.8501435 L300.326124,53.8501435 L300.326124,61.4396172 L302.610335,61.4396172 C303.317707,61.4396172 303.88507,61.3364604 304.31244,61.1301435 C304.739811,60.9238267 305.061562,60.5504971 305.277703,60.0101435 C305.493845,59.46979 305.601914,58.6985696 305.601914,57.6964593 C305.601914,56.6943491 305.503669,55.9157604 305.307177,55.3606699 Z M309.100686,52.8922488 L315.511212,52.8922488 L315.511212,53.8501435 L310.309107,53.8501435 L310.309107,57.165933 L314.980686,57.165933 L314.980686,58.1090909 L310.309107,58.1090909 L310.309107,61.4396172 L315.511212,61.4396172 L315.511212,62.3827751 L309.100686,62.3827751 L309.100686,52.8922488 Z M323.991037,61.0711962 L323.991037,62.1469856 C323.165769,62.4024255 322.252094,62.5301435 321.249984,62.5301435 C319.756643,62.5301435 318.624374,62.1126039 317.853142,61.277512 C317.08191,60.4424201 316.6963,59.2978701 316.6963,57.8438278 C316.6963,56.2325916 317.067173,54.9799726 317.808931,54.085933 C318.55069,53.1918935 319.692783,52.7448804 321.235247,52.7448804 C322.247182,52.7448804 323.165769,52.8922473 323.991037,53.1869856 L323.991037,54.2480383 C323.155945,53.9336507 322.271743,53.7764593 321.338405,53.7764593 C320.110329,53.7764593 319.231039,54.1203155 318.70051,54.8080383 C318.169981,55.495761 317.904721,56.5076807 317.904721,57.8438278 C317.904721,60.2803312 319.059095,61.4985646 321.367879,61.4985646 C322.360165,61.4985646 323.234542,61.3561099 323.991037,61.0711962 Z" id="DEC" fill="#302E2D"></path>
            <path d="M300.622967,37.3064593 L297.467703,37.7696172 L297.467703,31.9511962 L307.62823,30.5038278 L307.62823,49.4354067 L300.622967,49.4354067 L300.622967,37.3064593 Z M310.973051,47.7419856 C309.583571,46.4200492 308.888841,44.4854194 308.888841,41.9380383 L308.888841,38.7538278 C308.888841,37.190662 309.260328,35.7819042 310.003315,34.527512 C310.746301,33.2731197 311.826992,32.288919 313.24542,31.5748804 C314.663848,30.8608417 316.337954,30.5038278 318.267788,30.5038278 C319.387092,30.5038278 320.361644,30.5713709 321.191472,30.7064593 C322.021301,30.8415477 322.831819,31.0634753 323.623051,31.3722488 L323.623051,36.4380383 C322.909013,36.1292648 322.185336,35.9025127 321.451999,35.7577751 C320.718662,35.6130376 319.917793,35.5406699 319.049367,35.5406699 C318.296732,35.5406699 317.645423,35.6275111 317.09542,35.8011962 C316.545417,35.9748813 316.125684,36.1919843 315.836209,36.452512 C315.546734,36.7130396 315.401999,36.9783878 315.401999,37.2485646 L315.401999,37.4222488 C315.768667,37.209967 316.275241,37.0362846 316.921736,36.9011962 C317.56823,36.7661078 318.180943,36.6985646 318.759893,36.6985646 C321.094993,36.6985646 322.802871,37.219612 323.883578,38.2617225 C324.964285,39.303833 325.50463,40.8669752 325.50463,42.9511962 C325.50463,45.0354171 324.848497,46.6854006 323.536209,47.9011962 C322.223922,49.1169917 320.130083,49.7248804 317.25463,49.7248804 C314.456371,49.7248804 312.362532,49.0639221 310.973051,47.7419856 Z M318.788841,44.4998804 C319.116913,44.2200544 319.280946,43.7906728 319.280946,43.2117225 C319.280946,42.6327722 319.136211,42.198566 318.846736,41.9090909 C318.55726,41.6196158 318.06516,41.4748804 317.37042,41.4748804 C316.79147,41.4748804 316.135336,41.6485629 315.401999,41.995933 L315.401999,42.9222488 C315.401999,43.6362875 315.556383,44.1476859 315.865157,44.4564593 C316.17393,44.7652328 316.656381,44.9196172 317.312525,44.9196172 C317.968669,44.9196172 318.460769,44.7797063 318.788841,44.4998804 Z" id="16" fill="#302E2D"></path>
            <path d="M353.809761,61.2627751 C353.180986,62.0094455 352.169066,62.3827751 350.773971,62.3827751 L347.060287,62.3827751 L347.060287,52.8922488 L350.773971,52.8922488 C352.159241,52.8922488 353.168705,53.2680345 353.802392,54.0196172 C354.43608,54.7711999 354.752919,55.9968017 354.752919,57.6964593 C354.752919,59.3273447 354.438536,60.5161047 353.809761,61.2627751 Z M353.249761,55.3606699 C353.053269,54.8055794 352.741342,54.415057 352.313971,54.1890909 C351.886601,53.9631249 351.299589,53.8501435 350.552919,53.8501435 L348.268708,53.8501435 L348.268708,61.4396172 L350.552919,61.4396172 C351.260291,61.4396172 351.827653,61.3364604 352.255024,61.1301435 C352.682394,60.9238267 353.004146,60.5504971 353.220287,60.0101435 C353.436429,59.46979 353.544498,58.6985696 353.544498,57.6964593 C353.544498,56.6943491 353.446253,55.9157604 353.249761,55.3606699 Z M357.04327,52.8922488 L363.453796,52.8922488 L363.453796,53.8501435 L358.251691,53.8501435 L358.251691,57.165933 L362.92327,57.165933 L362.92327,58.1090909 L358.251691,58.1090909 L358.251691,61.4396172 L363.453796,61.4396172 L363.453796,62.3827751 L357.04327,62.3827751 L357.04327,52.8922488 Z M371.93362,61.0711962 L371.93362,62.1469856 C371.108353,62.4024255 370.194678,62.5301435 369.192568,62.5301435 C367.699227,62.5301435 366.566958,62.1126039 365.795726,61.277512 C365.024494,60.4424201 364.638884,59.2978701 364.638884,57.8438278 C364.638884,56.2325916 365.009757,54.9799726 365.751515,54.085933 C366.493273,53.1918935 367.635367,52.7448804 369.177831,52.7448804 C370.189766,52.7448804 371.108353,52.8922473 371.93362,53.1869856 L371.93362,54.2480383 C371.098529,53.9336507 370.214327,53.7764593 369.280989,53.7764593 C368.052913,53.7764593 367.173623,54.1203155 366.643094,54.8080383 C366.112565,55.495761 365.847305,56.5076807 365.847305,57.8438278 C365.847305,60.2803312 367.001679,61.4985646 369.310463,61.4985646 C370.302748,61.4985646 371.177125,61.3561099 371.93362,61.0711962 Z" id="DEC-Copy" fill="#302E2D"></path>
            <path d="M349.618182,37.3064593 L346.462919,37.7696172 L346.462919,31.9511962 L356.623445,30.5038278 L356.623445,49.4354067 L349.618182,49.4354067 L349.618182,37.3064593 Z M363.963004,36.1196172 L357.594582,36.1196172 L357.594582,30.7933014 L371.894582,30.7933014 L371.894582,34.6433014 L365.613004,49.4354067 L358.318267,49.4354067 L363.963004,36.1196172 Z" id="17" fill="#302E2D"></path>
            <rect id="Rectangle-2" fill="#FFFFFF" x="187.636364" y="125.090909" width="212.631579" height="33.6842105"></rect>
            <path d="M221.385646,139.304115 L224.434067,139.304115 C224.883192,139.304115 225.260732,139.398149 225.566699,139.58622 C225.872665,139.774291 226.102838,140.028324 226.257225,140.348325 C226.411612,140.668327 226.488804,141.024815 226.488804,141.417799 C226.488804,141.810783 226.403191,142.167271 226.231962,142.487273 C226.060733,142.807274 225.816525,143.0585 225.49933,143.240957 C225.182136,143.423414 224.815823,143.514641 224.400383,143.514641 L223.423541,143.514641 L223.423541,144.727273 L221.385646,144.727273 L221.385646,139.304115 Z M223.920383,141.923062 C224.083191,141.923062 224.206698,141.87815 224.290909,141.788325 C224.37512,141.6985 224.417225,141.574993 224.417225,141.417799 C224.417225,141.069727 224.26284,140.895694 223.954067,140.895694 L223.423541,140.895694 L223.423541,141.923062 L223.920383,141.923062 Z M230.109857,139.304115 L233.158278,139.304115 C233.826351,139.304115 234.33582,139.49078 234.686699,139.864115 C235.037578,140.23745 235.213014,140.72727 235.213014,141.333589 C235.213014,141.68166 235.124594,141.99464 234.947751,142.272536 C234.770908,142.550432 234.539332,142.784816 234.253014,142.975694 C234.359682,143.048677 234.43547,143.141307 234.480383,143.253589 L235.120383,144.727273 L232.998278,144.727273 L232.467751,143.523062 C232.439681,143.455693 232.408804,143.409378 232.37512,143.384115 C232.341435,143.358852 232.293716,143.34622 232.231962,143.34622 L232.147751,143.34622 L232.147751,144.727273 L230.109857,144.727273 L230.109857,139.304115 Z M232.644593,141.754641 C232.975823,141.754641 233.141435,141.614292 233.141435,141.333589 C233.141435,141.182009 233.103541,141.071133 233.027751,141.000957 C232.951961,140.930781 232.835471,140.895694 232.678278,140.895694 L232.147751,140.895694 L232.147751,141.754641 L232.644593,141.754641 Z M239.002488,139.304115 L241.040383,139.304115 L241.040383,144.727273 L239.002488,144.727273 L239.002488,139.304115 Z M244.998278,139.304115 L246.707751,139.304115 L248.223541,141.42622 L248.223541,139.304115 L250.261436,139.304115 L250.261436,144.727273 L248.543541,144.727273 L247.036172,142.605167 L247.036172,144.727273 L244.998278,144.727273 L244.998278,139.304115 Z M255.263541,140.769378 L253.882488,140.769378 L253.882488,139.304115 L258.682488,139.304115 L258.682488,140.769378 L257.301436,140.769378 L257.301436,144.727273 L255.263541,144.727273 L255.263541,140.769378 Z M262.008804,139.304115 L263.996172,139.304115 L264.408804,141.375694 L264.720383,140.22201 L264.720383,139.304115 L266.37933,139.304115 L266.985646,141.384115 L267.448804,139.304115 L269.427751,139.304115 L268.173015,144.727273 L266.396172,144.727273 L265.747751,142.588325 L265.048804,144.727273 L263.271962,144.727273 L262.008804,139.304115 Z M273.238278,144.154641 C272.747047,143.716744 272.501436,143.003769 272.501436,142.015694 C272.501436,141.027619 272.747047,140.314643 273.238278,139.876746 C273.729508,139.438849 274.452308,139.219904 275.406699,139.219904 C276.36109,139.219904 277.083889,139.438849 277.57512,139.876746 C278.06635,140.314643 278.311962,141.027619 278.311962,142.015694 C278.311962,143.003769 278.06635,143.716744 277.57512,144.154641 C277.083889,144.592538 276.36109,144.811483 275.406699,144.811483 C274.452308,144.811483 273.729508,144.592538 273.238278,144.154641 Z M276.042488,142.845167 C276.168805,142.685167 276.231962,142.408678 276.231962,142.015694 C276.231962,141.622709 276.168805,141.346221 276.042488,141.18622 C275.916172,141.026219 275.704244,140.94622 275.406699,140.94622 C275.109154,140.94622 274.897226,141.026219 274.770909,141.18622 C274.644593,141.346221 274.581436,141.622709 274.581436,142.015694 C274.581436,142.408678 274.644593,142.685167 274.770909,142.845167 C274.897226,143.005168 275.109154,143.085167 275.406699,143.085167 C275.704244,143.085167 275.916172,143.005168 276.042488,142.845167 Z M282.101436,139.304115 L285.149857,139.304115 C285.81793,139.304115 286.327399,139.49078 286.678278,139.864115 C287.029157,140.23745 287.204594,140.72727 287.204594,141.333589 C287.204594,141.68166 287.116173,141.99464 286.93933,142.272536 C286.762488,142.550432 286.530911,142.784816 286.244594,142.975694 C286.351261,143.048677 286.42705,143.141307 286.471962,143.253589 L287.111962,144.727273 L284.989857,144.727273 L284.45933,143.523062 C284.43126,143.455693 284.400383,143.409378 284.366699,143.384115 C284.333015,143.358852 284.285296,143.34622 284.223541,143.34622 L284.13933,143.34622 L284.13933,144.727273 L282.101436,144.727273 L282.101436,139.304115 Z M284.636173,141.754641 C284.967402,141.754641 285.133015,141.614292 285.133015,141.333589 C285.133015,141.182009 285.09512,141.071133 285.01933,141.000957 C284.943541,140.930781 284.827051,140.895694 284.669857,140.895694 L284.13933,140.895694 L284.13933,141.754641 L284.636173,141.754641 Z M290.994067,139.304115 L293.031962,139.304115 L293.031962,140.819904 L294.219331,139.304115 L296.518278,139.304115 L294.665646,141.552536 L296.686699,144.727273 L294.530909,144.727273 L293.419331,142.840957 L293.031962,143.312536 L293.031962,144.727273 L290.994067,144.727273 L290.994067,139.304115 Z M301.242488,144.710431 C300.888803,144.643062 300.594069,144.550431 300.358278,144.432536 L300.358278,142.908325 C300.627753,143.037449 300.926697,143.144114 301.25512,143.228325 C301.583543,143.312536 301.876873,143.354641 302.13512,143.354641 C302.303542,143.354641 302.43547,143.333589 302.53091,143.291483 C302.626349,143.249378 302.674067,143.189028 302.674067,143.110431 C302.674067,143.043062 302.63477,142.988326 302.556173,142.94622 C302.477576,142.904115 302.331612,142.846571 302.118278,142.773589 C301.871259,142.689378 301.73091,142.641659 301.697225,142.630431 C301.337925,142.495693 301.060033,142.355344 300.863541,142.209378 C300.667049,142.063412 300.525296,141.889379 300.438278,141.687273 C300.35126,141.485166 300.307752,141.226923 300.307752,140.912536 C300.307752,140.339901 300.505644,139.914643 300.901436,139.636746 C301.297227,139.35885 301.893713,139.219904 302.69091,139.219904 C302.954771,139.219904 303.260732,139.246571 303.608804,139.299904 C303.956876,139.353238 304.245996,139.413588 304.476173,139.480957 L304.476173,141.013589 C303.942837,140.79464 303.462842,140.685167 303.036173,140.685167 C302.60389,140.685167 302.387752,140.755342 302.387752,140.895694 C302.387752,140.951834 302.42705,140.99815 302.505646,141.034641 C302.584243,141.071133 302.741435,141.123062 302.977225,141.190431 L303.196173,141.249378 C303.628456,141.367273 303.958277,141.511833 304.185646,141.683062 C304.413016,141.854291 304.5674,142.05078 304.648804,142.272536 C304.730208,142.494291 304.77091,142.77078 304.77091,143.10201 C304.77091,143.629732 304.564596,144.046569 304.151962,144.352536 C303.739329,144.658502 303.140036,144.811483 302.354067,144.811483 C301.966697,144.811483 301.596174,144.777799 301.242488,144.710431 Z M307.861436,143.640957 L309.537225,143.640957 L308.989857,145.737799 L307.549857,145.737799 L307.861436,143.640957 Z" id="PRINTWORKS-," fill="#302E2D"></path>
            <path d="M322.713876,144.188325 L322.713876,144.727273 L319.134928,144.727273 L319.134928,139.304115 L319.825455,139.304115 L319.825455,144.188325 L322.713876,144.188325 Z M330.600191,144.137799 C330.193172,144.586924 329.563003,144.811483 328.709665,144.811483 C327.856328,144.811483 327.226158,144.586924 326.819139,144.137799 C326.412119,143.688674 326.208612,142.981313 326.208612,142.015694 C326.208612,141.050075 326.412119,140.342714 326.819139,139.893589 C327.226158,139.444463 327.856328,139.219904 328.709665,139.219904 C329.563003,139.219904 330.193172,139.444463 330.600191,139.893589 C331.007211,140.342714 331.210718,141.050075 331.210718,142.015694 C331.210718,142.981313 331.007211,143.688674 330.600191,144.137799 Z M330.326507,140.723062 C330.197384,140.400254 330.000895,140.167273 329.737034,140.024115 C329.473173,139.880956 329.13072,139.809378 328.709665,139.809378 C328.28861,139.809378 327.946158,139.880956 327.682297,140.024115 C327.418436,140.167273 327.221946,140.400254 327.092823,140.723062 C326.9637,141.045871 326.899139,141.476744 326.899139,142.015694 C326.899139,142.554644 326.9637,142.985517 327.092823,143.308325 C327.221946,143.631134 327.418436,143.864114 327.682297,144.007273 C327.946158,144.150431 328.28861,144.22201 328.709665,144.22201 C329.13072,144.22201 329.473173,144.150431 329.737034,144.007273 C330.000895,143.864114 330.197384,143.631134 330.326507,143.308325 C330.455631,142.985517 330.520191,142.554644 330.520191,142.015694 C330.520191,141.476744 330.455631,141.045871 330.326507,140.723062 Z M336.280191,144.727273 L335.589665,144.727273 L335.589665,139.304115 L336.212823,139.304115 L339.303349,143.66622 L339.303349,139.304115 L339.993876,139.304115 L339.993876,144.727273 L339.362297,144.727273 L336.280191,140.373589 L336.280191,144.727273 Z M348.398086,144.087273 C348.038786,144.513942 347.460546,144.727273 346.663349,144.727273 L344.541244,144.727273 L344.541244,139.304115 L346.663349,139.304115 C347.454932,139.304115 348.031769,139.51885 348.393876,139.948325 C348.755983,140.377801 348.937034,141.078145 348.937034,142.049378 C348.937034,142.981312 348.757386,143.660604 348.398086,144.087273 Z M348.078086,140.714641 C347.965805,140.397447 347.787561,140.174291 347.543349,140.045167 C347.299138,139.916044 346.963702,139.851483 346.537034,139.851483 L345.23177,139.851483 L345.23177,144.188325 L346.537034,144.188325 C346.941246,144.188325 347.265453,144.129379 347.509665,144.011483 C347.753877,143.893588 347.937735,143.680257 348.061244,143.371483 C348.184754,143.06271 348.246507,142.622012 348.246507,142.049378 C348.246507,141.476744 348.190368,141.031836 348.078086,140.714641 Z M357.539139,144.137799 C357.132119,144.586924 356.50195,144.811483 355.648613,144.811483 C354.795275,144.811483 354.165106,144.586924 353.758086,144.137799 C353.351067,143.688674 353.14756,142.981313 353.14756,142.015694 C353.14756,141.050075 353.351067,140.342714 353.758086,139.893589 C354.165106,139.444463 354.795275,139.219904 355.648613,139.219904 C356.50195,139.219904 357.132119,139.444463 357.539139,139.893589 C357.946159,140.342714 358.149665,141.050075 358.149665,142.015694 C358.149665,142.981313 357.946159,143.688674 357.539139,144.137799 Z M357.265455,140.723062 C357.136331,140.400254 356.939842,140.167273 356.675981,140.024115 C356.41212,139.880956 356.069667,139.809378 355.648613,139.809378 C355.227558,139.809378 354.885105,139.880956 354.621244,140.024115 C354.357383,140.167273 354.160894,140.400254 354.031771,140.723062 C353.902647,141.045871 353.838086,141.476744 353.838086,142.015694 C353.838086,142.554644 353.902647,142.985517 354.031771,143.308325 C354.160894,143.631134 354.357383,143.864114 354.621244,144.007273 C354.885105,144.150431 355.227558,144.22201 355.648613,144.22201 C356.069667,144.22201 356.41212,144.150431 356.675981,144.007273 C356.939842,143.864114 357.136331,143.631134 357.265455,143.308325 C357.394578,142.985517 357.459139,142.554644 357.459139,142.015694 C357.459139,141.476744 357.394578,141.045871 357.265455,140.723062 Z M363.219139,144.727273 L362.528613,144.727273 L362.528613,139.304115 L363.151771,139.304115 L366.242297,143.66622 L366.242297,139.304115 L366.932823,139.304115 L366.932823,144.727273 L366.301244,144.727273 L363.219139,140.373589 L363.219139,144.727273 Z" id="LONDON" fill="#302E2D"></path>
            <path d="M45.9810909,138.986182 L43.92,139.288727 L43.92,135.488 L50.5570909,134.542545 L50.5570909,146.909091 L45.9810909,146.909091 L45.9810909,138.986182 Z M53.149119,146.133818 C52.2414781,145.490906 51.7876644,144.513946 51.7876644,143.202909 C51.7876644,142.698664 51.9011179,142.203881 52.1280281,141.718545 C52.3549383,141.23321 52.6511778,140.858183 53.0167554,140.593455 C52.7268145,140.31612 52.4967562,139.985214 52.3265735,139.600727 C52.1563909,139.216241 52.0713008,138.822305 52.0713008,138.418909 C52.0713008,135.834654 53.8550405,134.542545 57.4225735,134.542545 C59.3134921,134.542545 60.6843875,134.876603 61.5353008,135.544727 C62.3862142,136.212852 62.8116644,137.170903 62.8116644,138.418909 C62.8116644,138.822305 62.7297259,139.228846 62.5658463,139.638545 C62.4019667,140.048244 62.1750598,140.385453 61.885119,140.650182 C62.2633027,140.952729 62.5595422,141.321452 62.7738463,141.756364 C62.9881504,142.191275 63.0953008,142.673452 63.0953008,143.202909 C63.0953008,144.513946 62.6383357,145.490906 61.7243917,146.133818 C60.8104478,146.77673 59.3765227,147.098182 57.4225735,147.098182 C55.4812305,147.098182 54.0567599,146.77673 53.149119,146.133818 Z M58.3396644,139.099636 C58.4342104,138.948363 58.4814826,138.752971 58.4814826,138.513455 C58.4814826,137.958785 58.1285165,137.681455 57.4225735,137.681455 C56.7418429,137.681455 56.4014826,137.958785 56.4014826,138.513455 C56.4014826,138.967275 56.5968746,139.232 56.9876644,139.307636 L57.8574826,139.477818 C58.0843929,139.376969 58.2451185,139.25091 58.3396644,139.099636 Z M58.4342099,143.732364 C58.6548171,143.58109 58.765119,143.373092 58.765119,143.108364 C58.765119,142.654543 58.4814855,142.364607 57.9142099,142.238545 L56.8174826,142.011636 C56.3510561,142.150304 56.1178463,142.465452 56.1178463,142.957091 C56.1178463,143.625215 56.552751,143.959273 57.4225735,143.959273 C57.876394,143.959273 58.2136027,143.883637 58.4342099,143.732364 Z M66.2167834,143.032727 L63.9476925,143.032727 L63.9476925,139.553455 L66.2167834,139.553455 L66.2167834,137.568 L69.6960562,137.568 L69.6960562,139.553455 L71.9651471,139.553455 L71.9651471,143.032727 L69.6960562,143.032727 L69.6960562,145.018182 L66.2167834,145.018182 L66.2167834,143.032727 Z M78.7753851,144.885818 C79.1283565,144.318543 79.5254435,143.789093 79.9666578,143.297455 C80.4078721,142.805816 80.9373214,142.288972 81.5550214,141.746909 C82.3618133,141.053572 82.8975656,140.558789 83.1622941,140.262545 C83.4270227,139.966302 83.5593851,139.654305 83.5593851,139.326545 C83.5593851,138.734058 83.1244803,138.437818 82.2546578,138.437818 C81.2335618,138.437818 80.1935722,138.664725 79.1346578,139.118545 L79.1346578,135.317818 C79.7019333,135.078302 80.3637449,134.889213 81.1201123,134.750545 C81.8764797,134.611878 82.6580477,134.542545 83.4648396,134.542545 C85.0406051,134.542545 86.2287144,134.898663 87.0292032,135.610909 C87.8296921,136.323155 88.2299305,137.290661 88.2299305,138.513455 C88.2299305,139.269822 88.1038712,139.890664 87.8517487,140.376 C87.5996262,140.861336 87.1332066,141.406542 86.452476,142.011636 L86.1121123,142.314182 C85.5196245,142.805821 85.1351435,143.177696 84.9586578,143.429818 L88.324476,143.429818 L88.324476,146.909091 L78.7753851,146.909091 L78.7753851,144.885818 Z M89.5550495,134.731636 L96.4001404,134.731636 C97.4086303,134.731636 98.2563794,134.942786 98.9434131,135.365091 C99.6304469,135.787396 100.14729,136.357815 100.493959,137.076364 C100.840627,137.794913 101.013959,138.59539 101.013959,139.477818 C101.013959,140.360247 100.821718,141.160724 100.437231,141.879273 C100.052745,142.597822 99.5043864,143.161937 98.7921404,143.571636 C98.0798944,143.981335 97.2573572,144.186182 96.324504,144.186182 L94.1310495,144.186182 L94.1310495,146.909091 L89.5550495,146.909091 L89.5550495,134.731636 Z M95.2466859,140.612364 C95.6122635,140.612364 95.889594,140.511516 96.0786859,140.309818 C96.2677777,140.10812 96.3623222,139.83079 96.3623222,139.477818 C96.3623222,138.696239 96.015659,138.305455 95.3223222,138.305455 L94.1310495,138.305455 L94.1310495,140.612364 L95.2466859,140.612364 Z M101.86635,134.731636 L106.215441,134.731636 L108.692532,139.761455 L111.150714,134.731636 L115.499805,134.731636 L115.499805,146.909091 L110.923805,146.909091 L110.923805,142.635636 L109.845987,144.829091 L107.520168,144.829091 L106.44235,142.635636 L106.44235,146.909091 L101.86635,146.909091 L101.86635,134.731636 Z M122.688225,139.553455 L130.327497,139.553455 L130.327497,143.032727 L122.688225,143.032727 L122.688225,139.553455 Z M139.198826,138.986182 L137.137735,139.288727 L137.137735,135.488 L143.774826,134.542545 L143.774826,146.909091 L139.198826,146.909091 L139.198826,138.986182 Z M147.066491,138.986182 L145.0054,139.288727 L145.0054,135.488 L151.642491,134.542545 L151.642491,146.909091 L147.066491,146.909091 L147.066491,138.986182 Z M153.251246,134.731636 L160.096337,134.731636 C161.104827,134.731636 161.952576,134.942786 162.63961,135.365091 C163.326643,135.787396 163.843487,136.357815 164.190155,137.076364 C164.536824,137.794913 164.710155,138.59539 164.710155,139.477818 C164.710155,140.360247 164.517915,141.160724 164.133428,141.879273 C163.748941,142.597822 163.200583,143.161937 162.488337,143.571636 C161.776091,143.981335 160.953554,144.186182 160.020701,144.186182 L157.827246,144.186182 L157.827246,146.909091 L153.251246,146.909091 L153.251246,134.731636 Z M158.942882,140.612364 C159.30846,140.612364 159.585791,140.511516 159.774882,140.309818 C159.963974,140.10812 160.058519,139.83079 160.058519,139.477818 C160.058519,138.696239 159.711856,138.305455 159.018519,138.305455 L157.827246,138.305455 L157.827246,140.612364 L158.942882,140.612364 Z M165.562547,134.731636 L169.911638,134.731636 L172.388729,139.761455 L174.846911,134.731636 L179.196001,134.731636 L179.196001,146.909091 L174.620001,146.909091 L174.620001,142.635636 L173.542183,144.829091 L171.216365,144.829091 L170.138547,142.635636 L170.138547,146.909091 L165.562547,146.909091 L165.562547,134.731636 Z" id="18+-2PM---11PM" fill="#FFFFFF"></path>
        </g>
    </g>
</svg>